<svg xmlns="http://www.w3.org/2000/svg" viewBox="0 0 795.82 191.72"><defs><style>.cls-1{fill:#017173;}.cls-2{fill:#fd2f1e;}</style></defs><g id="Layer_2" data-name="Layer 2"><g id="Layer_1-2" data-name="Layer 1"><path class="cls-1" d="M259.76,185.26l10.58-8.08a15,15,0,0,0,2.81-2.66,4,4,0,0,0,.82-2.42,2.68,2.68,0,0,0-.86-2.1,3.34,3.34,0,0,0-2.29-.77,4.67,4.67,0,0,0-2.68.87,16.86,16.86,0,0,0-2.93,2.76l-5.29-4.4a24.69,24.69,0,0,1,2.3-2.58,12.59,12.59,0,0,1,2.53-1.9,11.79,11.79,0,0,1,3-1.17,15.4,15.4,0,0,1,3.69-.4,12.92,12.92,0,0,1,4.22.66,10.29,10.29,0,0,1,3.29,1.84,8.23,8.23,0,0,1,2.14,2.84,8.73,8.73,0,0,1,.77,3.66v.08a10.08,10.08,0,0,1-.43,3,8.33,8.33,0,0,1-1.27,2.48,13.18,13.18,0,0,1-2.06,2.2c-.81.7-1.73,1.43-2.78,2.18l-4.85,3.39h11.67v6.38H259.76Z"/><path class="cls-1" d="M304.37,191.72a12.69,12.69,0,0,1-5.45-1.15,12,12,0,0,1-4.09-3.15,14.43,14.43,0,0,1-2.59-4.67,17.51,17.51,0,0,1-.91-5.65V177a17.2,17.2,0,0,1,.93-5.67,14.46,14.46,0,0,1,2.63-4.68,12.92,12.92,0,0,1,15-3.19,12.08,12.08,0,0,1,4.1,3.14,14.39,14.39,0,0,1,2.61,4.67,17.51,17.51,0,0,1,.91,5.65V177a17.73,17.73,0,0,1-.91,5.67,14.07,14.07,0,0,1-2.63,4.69,12.58,12.58,0,0,1-4.14,3.17A12.35,12.35,0,0,1,304.37,191.72Zm.09-6.95a4.15,4.15,0,0,0,2.14-.56,4.88,4.88,0,0,0,1.63-1.6,8.22,8.22,0,0,0,1-2.42,12.36,12.36,0,0,0,.36-3.09V177a12.1,12.1,0,0,0-.38-3.11,8.38,8.38,0,0,0-1.07-2.44,5.19,5.19,0,0,0-1.66-1.61,4,4,0,0,0-2.14-.59,4.08,4.08,0,0,0-2.11.56,5.24,5.24,0,0,0-1.64,1.58,7.54,7.54,0,0,0-1.05,2.42,12.58,12.58,0,0,0-.36,3.11V177a11.88,11.88,0,0,0,.38,3.13,8.17,8.17,0,0,0,1.07,2.46,5.05,5.05,0,0,0,1.66,1.6A4.1,4.1,0,0,0,304.46,184.77Z"/><path class="cls-1" d="M331.79,170,327,171.09,325.53,165l8.28-2.34h5.69v28.46h-7.71Z"/><path class="cls-1" d="M349.63,185.26l10.58-8.08a14.73,14.73,0,0,0,2.81-2.66,4,4,0,0,0,.83-2.42A2.65,2.65,0,0,0,363,170a3.33,3.33,0,0,0-2.28-.77,4.68,4.68,0,0,0-2.69.87,16.86,16.86,0,0,0-2.93,2.76l-5.28-4.4a23.6,23.6,0,0,1,2.3-2.58,12.26,12.26,0,0,1,2.52-1.9,11.79,11.79,0,0,1,3-1.17,15.4,15.4,0,0,1,3.69-.4,12.88,12.88,0,0,1,4.22.66,10.19,10.19,0,0,1,3.29,1.84,8.11,8.11,0,0,1,2.14,2.84,8.73,8.73,0,0,1,.77,3.66v.08a9.77,9.77,0,0,1-.43,3A8.33,8.33,0,0,1,370,177a13.18,13.18,0,0,1-2.06,2.2c-.8.7-1.73,1.43-2.78,2.18l-4.85,3.39H372v6.38H349.63Z"/><path class="cls-1" d="M382.78,175.28h18.09v6.55H382.78Z"/><path class="cls-1" d="M411.48,185.26l10.58-8.08a14.73,14.73,0,0,0,2.81-2.66,4,4,0,0,0,.83-2.42,2.65,2.65,0,0,0-.87-2.1,3.33,3.33,0,0,0-2.28-.77,4.7,4.7,0,0,0-2.69.87,16.51,16.51,0,0,0-2.92,2.76l-5.29-4.4a23.6,23.6,0,0,1,2.3-2.58,12.26,12.26,0,0,1,2.52-1.9,11.79,11.79,0,0,1,3-1.17,15.4,15.4,0,0,1,3.69-.4,12.88,12.88,0,0,1,4.22.66,10.19,10.19,0,0,1,3.29,1.84,8.11,8.11,0,0,1,2.14,2.84,8.73,8.73,0,0,1,.77,3.66v.08a10.09,10.09,0,0,1-.42,3,8.6,8.6,0,0,1-1.28,2.48,13.18,13.18,0,0,1-2.06,2.2c-.8.7-1.73,1.43-2.78,2.18l-4.85,3.39h11.67v6.38H411.48Z"/><path class="cls-1" d="M456.1,191.72a12.63,12.63,0,0,1-5.45-1.15,12,12,0,0,1-4.1-3.15,14.22,14.22,0,0,1-2.58-4.67,17.25,17.25,0,0,1-.91-5.65V177a17.2,17.2,0,0,1,.93-5.67,14.26,14.26,0,0,1,2.62-4.68,12.57,12.57,0,0,1,19.1,0,14.37,14.37,0,0,1,2.6,4.67,17.25,17.25,0,0,1,.91,5.65V177a17.45,17.45,0,0,1-.91,5.67,14.23,14.23,0,0,1-2.62,4.69,12.79,12.79,0,0,1-4.14,3.17A12.38,12.38,0,0,1,456.1,191.72Zm.08-6.95a4.15,4.15,0,0,0,2.14-.56,4.88,4.88,0,0,0,1.63-1.6,8,8,0,0,0,1-2.42,12.35,12.35,0,0,0,.37-3.09V177a11.66,11.66,0,0,0-.39-3.11,8.12,8.12,0,0,0-1.07-2.44,5.16,5.16,0,0,0-1.65-1.61,4,4,0,0,0-2.14-.59,4.12,4.12,0,0,0-2.12.56,5.35,5.35,0,0,0-1.64,1.58,7.77,7.77,0,0,0-1,2.42,12.58,12.58,0,0,0-.36,3.11V177a12.31,12.31,0,0,0,.38,3.13,8.42,8.42,0,0,0,1.07,2.46,5.05,5.05,0,0,0,1.66,1.6A4.12,4.12,0,0,0,456.18,184.77Z"/><path class="cls-1" d="M478.26,185.26l10.58-8.08a15,15,0,0,0,2.81-2.66,4,4,0,0,0,.83-2.42,2.68,2.68,0,0,0-.87-2.1,3.34,3.34,0,0,0-2.29-.77,4.67,4.67,0,0,0-2.68.87,16.86,16.86,0,0,0-2.93,2.76l-5.29-4.4a24.73,24.73,0,0,1,2.31-2.58,12.26,12.26,0,0,1,2.52-1.9,11.79,11.79,0,0,1,3-1.17,15.4,15.4,0,0,1,3.69-.4,12.92,12.92,0,0,1,4.22.66,10.19,10.19,0,0,1,3.29,1.84,8.23,8.23,0,0,1,2.14,2.84,8.73,8.73,0,0,1,.77,3.66v.08a9.77,9.77,0,0,1-.43,3,8.33,8.33,0,0,1-1.27,2.48,13.18,13.18,0,0,1-2.06,2.2c-.8.7-1.73,1.43-2.78,2.18L489,184.77h11.67v6.38H478.26Z"/><path class="cls-1" d="M509.51,185.26l10.58-8.08a15,15,0,0,0,2.81-2.66,4,4,0,0,0,.82-2.42,2.68,2.68,0,0,0-.86-2.1,3.34,3.34,0,0,0-2.29-.77,4.67,4.67,0,0,0-2.68.87,16.86,16.86,0,0,0-2.93,2.76l-5.29-4.4a23.65,23.65,0,0,1,2.31-2.58,12.26,12.26,0,0,1,2.52-1.9,11.79,11.79,0,0,1,3-1.17,15.4,15.4,0,0,1,3.69-.4,12.92,12.92,0,0,1,4.22.66,10.29,10.29,0,0,1,3.29,1.84,8.23,8.23,0,0,1,2.14,2.84,8.73,8.73,0,0,1,.77,3.66v.08a10.08,10.08,0,0,1-.43,3A8.33,8.33,0,0,1,529.9,177a13.18,13.18,0,0,1-2.06,2.2c-.81.7-1.73,1.43-2.78,2.18l-4.85,3.39h11.67v6.38H509.51Z"/><path class="cls-2" d="M169.59.36V100.59c0,24.54-13.06,38-36.8,38s-36.61-13.51-36.61-38V.36h9.61V100.59c0,18.84,9.34,28.8,27,28.8s27.19-10,27.19-28.8V.36Z"/><path class="cls-1" d="M617.61,34.41a17.66,17.66,0,0,0,.1-2c0-16-13.36-32.26-38.9-32.26C553.51.18,539,15.08,539,41.06V98c0,26,14.31,40.88,39.27,40.88,25.9,0,39.44-16.23,39.44-32.26a18.06,18.06,0,0,0-.16-2.69l-15.08-.06c-1.44,9-3.22,20.1-23.13,20.1-17.34,0-25.07-8-25.07-26v-57c0-17.71,7.8-26,24.54-26,14.83,0,22.79,6.63,23.63,19.51Z"/><path class="cls-1" d="M707.22.81V98c0,26.36-14.08,40.88-39.63,40.88S628.14,124.4,628.14,98V.81h15.27V98c0,17.47,7.91,26,24.18,26s24.35-8.74,24.35-26V.81Z"/><path class="cls-1" d="M781.89,20.46A47.32,47.32,0,0,0,760,14.91c-16.16,0-24.35,6.5-24.35,19.33,0,13.63,9.2,17.56,24.23,22.84,16,5.62,36,12.63,36,42.21,0,25.19-14.51,39.63-39.8,39.63-15.84,0-27.49-5.26-33.49-11.55-2.4-2.52-1-1.14-2.37-3.14l10.21-9.91c3.72,4.31,9.74,9.69,24.75,9.69,16.87,0,25.43-8,25.43-23.82,0-19.19-12.83-23.77-27.69-29.07-15.24-5.43-32.52-11.6-32.52-36.17C720.34,13.07,735.23,0,760.15,0c10.62,0,24.18,2.56,29.71,8Z"/><polygon class="cls-1" points="383.69 15.09 383.69 0.18 312.41 0.19 312.43 138.43 327.7 138.43 327.7 76.2 359.43 76.2 359.43 61.65 327.7 61.65 327.7 15.09 383.69 15.09"/><polygon class="cls-2" points="283 0.43 274.76 0.42 237.71 76.95 200.59 0.42 192.34 0.43 192.33 138.43 201.94 138.43 201.94 23.79 237.68 96.31 273.39 23.96 273.39 138.43 283 138.43 283 0.43"/><polygon class="cls-2" points="66.58 138.43 73.45 138.43 73.44 0.16 63.83 0.16 64.02 112.93 7.91 0.26 0 0.26 0.03 138.43 9.64 138.43 9.36 21.38 66.58 138.43"/><path class="cls-1" d="M447.36,43.88a26.93,26.93,0,0,0-10.63,7.51,35.09,35.09,0,0,0-7.61-12l-.11-.1a41.58,41.58,0,0,1,46.83-7.19c.94.45,1.85.94,2.76,1.46A6.83,6.83,0,0,1,480.18,44l-.23.25a6.75,6.75,0,0,1-8.39,1.48A27.75,27.75,0,0,0,447.36,43.88Z"/><path class="cls-1" d="M499.21,69.56a41.68,41.68,0,0,1-46.38,41.36A40.83,40.83,0,0,1,439,106.79V90a27.59,27.59,0,0,0,46.17-20.4Z"/><path class="cls-2" d="M451,28.6a40.73,40.73,0,0,0-21.85,10.83l-.11-.1a34.71,34.71,0,0,0-11.51-7.82.46.46,0,0,0-.14-.07,55.06,55.06,0,0,1,34-17,55.78,55.78,0,0,1,22.24,2,54,54,0,0,1,7,2.62,6.85,6.85,0,0,1,3,9.94l-.19.29a6.84,6.84,0,0,1-7.53,2.88,6.22,6.22,0,0,1-1.19-.41A41.51,41.51,0,0,0,451,28.6Z"/><path class="cls-2" d="M513.09,69.56A55.5,55.5,0,0,1,439,121.85V106.63a41.46,41.46,0,0,0,60.05-37.07Z"/><path class="cls-1" d="M456.45,14.21a55.23,55.23,0,0,0-38.95,17.3.46.46,0,0,0-.14-.07A34.86,34.86,0,0,0,404,28.79h-2.45A69.43,69.43,0,0,1,476.15,2.68a7,7,0,0,1-2,13.74h-.58a6.69,6.69,0,0,1-1.31-.24A55.52,55.52,0,0,0,456.45,14.21Z"/><path class="cls-1" d="M527,69.56A69.41,69.41,0,0,1,439,136.4V121.68a55.34,55.34,0,0,0,73.91-52.12Z"/><path class="cls-1" d="M457,60l-5.08-8.36h4.22l2.75,4.87,2.77-4.87h4.14l-5.08,8.31V65H457Z"/><path class="cls-1" d="M468.66,51.6h10.73v3.15h-7.08v2h6.42V59.7h-6.42v2.12h7.18V65H468.66Z"/><path class="cls-1" d="M487.9,51.5h3.57L497.16,65h-4l-1-2.39h-5.16l-1,2.39h-3.89Zm3.25,8.21-1.49-3.8-1.51,3.8Z"/><path class="cls-1" d="M500.34,51.6h6.32a7.75,7.75,0,0,1,2.62.38A4.47,4.47,0,0,1,511,53.05a4.11,4.11,0,0,1,1.18,3.11v0a4.26,4.26,0,0,1-.74,2.56,4.82,4.82,0,0,1-2,1.55L512.64,65h-4.28l-2.69-4H504v4h-3.7ZM506.49,58a2.2,2.2,0,0,0,1.47-.43,1.42,1.42,0,0,0,.51-1.15v0a1.37,1.37,0,0,0-.53-1.19,2.47,2.47,0,0,0-1.47-.39H504V58Z"/><path class="cls-1" d="M521.55,65.2a10.42,10.42,0,0,1-3.41-.56A8.29,8.29,0,0,1,515.28,63l2.07-2.47a6.78,6.78,0,0,0,4.33,1.6,2.2,2.2,0,0,0,1.14-.24.74.74,0,0,0,.39-.67v0a.72.72,0,0,0-.09-.37,1,1,0,0,0-.36-.32,3.46,3.46,0,0,0-.68-.29,10.08,10.08,0,0,0-1.12-.3c-.72-.16-1.38-.35-2-.54a6.17,6.17,0,0,1-1.59-.76,3.41,3.41,0,0,1-1.07-1.17,3.47,3.47,0,0,1-.4-1.72v0a4.08,4.08,0,0,1,.36-1.72,3.75,3.75,0,0,1,1-1.35,4.92,4.92,0,0,1,1.63-.89,6.91,6.91,0,0,1,2.16-.31,9.67,9.67,0,0,1,3.07.45,7.7,7.7,0,0,1,2.43,1.34l-1.85,2.62a7.52,7.52,0,0,0-1.88-1,5.56,5.56,0,0,0-1.86-.34,1.67,1.67,0,0,0-1,.25.73.73,0,0,0-.33.61v0a.77.77,0,0,0,.1.4.91.91,0,0,0,.37.31,3.8,3.8,0,0,0,.7.29c.3.09.68.19,1.14.29a16.06,16.06,0,0,1,2.07.59,6,6,0,0,1,1.58.81,3.2,3.2,0,0,1,1,1.15,3.51,3.51,0,0,1,.34,1.61v0a4.1,4.1,0,0,1-.39,1.83A3.89,3.89,0,0,1,525.47,64a5,5,0,0,1-1.7.86A7.74,7.74,0,0,1,521.55,65.2Z"/><path class="cls-1" d="M432.59,61.26v77.17H419V64.73a14.72,14.72,0,0,0-1.5-6.44s0-.06,0-.08a16.39,16.39,0,0,0-3.14-4.28.08.08,0,0,0-.07,0l-.05-.06a20.74,20.74,0,0,0-14.51-5.51h-11.6a7.26,7.26,0,0,1,2.86-14h8.57C417.75,34.36,432.59,46.42,432.59,61.26Z"/><path class="cls-2" d="M419,64.73v73.7H405.73V68.93a7.41,7.41,0,0,0-1.3-4.13v-.07a1.85,1.85,0,0,0-.58-.65,7.3,7.3,0,0,0-5.51-2.48H378.09a7.27,7.27,0,0,1,4.07-13.29h17.52a20.74,20.74,0,0,1,14.51,5.51l.05.06a.08.08,0,0,1,.07,0,16.39,16.39,0,0,1,3.14,4.28s0,.06,0,.08A14.72,14.72,0,0,1,419,64.73Z"/><path class="cls-1" d="M405.73,68.93v69.5H391.18V76.15h-18a7.28,7.28,0,0,1,0-14.55h25.19a7.3,7.3,0,0,1,5.51,2.48,4.36,4.36,0,0,1,.58.72A7.41,7.41,0,0,1,405.73,68.93Z"/></g></g></svg>