<?xml version="1.0" encoding="utf-8" standalone="no"?>
<!DOCTYPE svg PUBLIC "-//W3C//DTD SVG 1.1//EN"
  "http://www.w3.org/Graphics/SVG/1.1/DTD/svg11.dtd">
<svg xmlns:xlink="http://www.w3.org/1999/xlink" width="1080pt" height="720pt" viewBox="0 0 1080 720" xmlns="http://www.w3.org/2000/svg" version="1.1">
 <metadata>
  <rdf:RDF xmlns:dc="http://purl.org/dc/elements/1.1/" xmlns:cc="http://creativecommons.org/ns#" xmlns:rdf="http://www.w3.org/1999/02/22-rdf-syntax-ns#">
   <cc:Work>
    <dc:type rdf:resource="http://purl.org/dc/dcmitype/StillImage"/>
    <dc:date>2022-09-06T02:43:16.613993</dc:date>
    <dc:format>image/svg+xml</dc:format>
    <dc:creator>
     <cc:Agent>
      <dc:title>Matplotlib v3.5.3, https://matplotlib.org/</dc:title>
     </cc:Agent>
    </dc:creator>
   </cc:Work>
  </rdf:RDF>
 </metadata>
 <defs>
  <style type="text/css">*{stroke-linejoin: round; stroke-linecap: butt}</style>
 </defs>
 <g id="figure_1">
  <g id="patch_1">
   <path d="M 0 720 
L 1080 720 
L 1080 0 
L 0 0 
z
" style="fill: #ffffff"/>
  </g>
  <g id="axes_1">
   <g id="patch_2">
    <path d="M 54.47 674.44 
L 829.023455 674.44 
L 829.023455 10.8 
L 54.47 10.8 
z
" style="fill: #ffffff"/>
   </g>
   <g id="matplotlib.axis_1">
    <g id="xtick_1">
     <g id="line2d_1">
      <defs>
       <path id="m01c015858e" d="M 0 0 
L 0 3.5 
" style="stroke: #000000; stroke-width: 0.8"/>
      </defs>
      <g>
       <use xlink:href="#m01c015858e" x="89.676975" y="674.44" style="stroke: #000000; stroke-width: 0.8"/>
      </g>
     </g>
     <g id="text_1">
      <!-- 2021-09-16 -->
      <g transform="translate(60.619163 689.038437)scale(0.1 -0.1)">
       <defs>
        <path id="DejaVuSans-32" d="M 1228 531 
L 3431 531 
L 3431 0 
L 469 0 
L 469 531 
Q 828 903 1448 1529 
Q 2069 2156 2228 2338 
Q 2531 2678 2651 2914 
Q 2772 3150 2772 3378 
Q 2772 3750 2511 3984 
Q 2250 4219 1831 4219 
Q 1534 4219 1204 4116 
Q 875 4013 500 3803 
L 500 4441 
Q 881 4594 1212 4672 
Q 1544 4750 1819 4750 
Q 2544 4750 2975 4387 
Q 3406 4025 3406 3419 
Q 3406 3131 3298 2873 
Q 3191 2616 2906 2266 
Q 2828 2175 2409 1742 
Q 1991 1309 1228 531 
z
" transform="scale(0.015625)"/>
        <path id="DejaVuSans-30" d="M 2034 4250 
Q 1547 4250 1301 3770 
Q 1056 3291 1056 2328 
Q 1056 1369 1301 889 
Q 1547 409 2034 409 
Q 2525 409 2770 889 
Q 3016 1369 3016 2328 
Q 3016 3291 2770 3770 
Q 2525 4250 2034 4250 
z
M 2034 4750 
Q 2819 4750 3233 4129 
Q 3647 3509 3647 2328 
Q 3647 1150 3233 529 
Q 2819 -91 2034 -91 
Q 1250 -91 836 529 
Q 422 1150 422 2328 
Q 422 3509 836 4129 
Q 1250 4750 2034 4750 
z
" transform="scale(0.015625)"/>
        <path id="DejaVuSans-31" d="M 794 531 
L 1825 531 
L 1825 4091 
L 703 3866 
L 703 4441 
L 1819 4666 
L 2450 4666 
L 2450 531 
L 3481 531 
L 3481 0 
L 794 0 
L 794 531 
z
" transform="scale(0.015625)"/>
        <path id="DejaVuSans-2d" d="M 313 2009 
L 1997 2009 
L 1997 1497 
L 313 1497 
L 313 2009 
z
" transform="scale(0.015625)"/>
        <path id="DejaVuSans-39" d="M 703 97 
L 703 672 
Q 941 559 1184 500 
Q 1428 441 1663 441 
Q 2288 441 2617 861 
Q 2947 1281 2994 2138 
Q 2813 1869 2534 1725 
Q 2256 1581 1919 1581 
Q 1219 1581 811 2004 
Q 403 2428 403 3163 
Q 403 3881 828 4315 
Q 1253 4750 1959 4750 
Q 2769 4750 3195 4129 
Q 3622 3509 3622 2328 
Q 3622 1225 3098 567 
Q 2575 -91 1691 -91 
Q 1453 -91 1209 -44 
Q 966 3 703 97 
z
M 1959 2075 
Q 2384 2075 2632 2365 
Q 2881 2656 2881 3163 
Q 2881 3666 2632 3958 
Q 2384 4250 1959 4250 
Q 1534 4250 1286 3958 
Q 1038 3666 1038 3163 
Q 1038 2656 1286 2365 
Q 1534 2075 1959 2075 
z
" transform="scale(0.015625)"/>
        <path id="DejaVuSans-36" d="M 2113 2584 
Q 1688 2584 1439 2293 
Q 1191 2003 1191 1497 
Q 1191 994 1439 701 
Q 1688 409 2113 409 
Q 2538 409 2786 701 
Q 3034 994 3034 1497 
Q 3034 2003 2786 2293 
Q 2538 2584 2113 2584 
z
M 3366 4563 
L 3366 3988 
Q 3128 4100 2886 4159 
Q 2644 4219 2406 4219 
Q 1781 4219 1451 3797 
Q 1122 3375 1075 2522 
Q 1259 2794 1537 2939 
Q 1816 3084 2150 3084 
Q 2853 3084 3261 2657 
Q 3669 2231 3669 1497 
Q 3669 778 3244 343 
Q 2819 -91 2113 -91 
Q 1303 -91 875 529 
Q 447 1150 447 2328 
Q 447 3434 972 4092 
Q 1497 4750 2381 4750 
Q 2619 4750 2861 4703 
Q 3103 4656 3366 4563 
z
" transform="scale(0.015625)"/>
       </defs>
       <use xlink:href="#DejaVuSans-32"/>
       <use xlink:href="#DejaVuSans-30" x="63.623047"/>
       <use xlink:href="#DejaVuSans-32" x="127.246094"/>
       <use xlink:href="#DejaVuSans-31" x="190.869141"/>
       <use xlink:href="#DejaVuSans-2d" x="254.492188"/>
       <use xlink:href="#DejaVuSans-30" x="290.576172"/>
       <use xlink:href="#DejaVuSans-39" x="354.199219"/>
       <use xlink:href="#DejaVuSans-2d" x="417.822266"/>
       <use xlink:href="#DejaVuSans-31" x="453.90625"/>
       <use xlink:href="#DejaVuSans-36" x="517.529297"/>
      </g>
     </g>
    </g>
    <g id="xtick_2">
     <g id="line2d_2">
      <g>
       <use xlink:href="#m01c015858e" x="210.797181" y="674.44" style="stroke: #000000; stroke-width: 0.8"/>
      </g>
     </g>
     <g id="text_2">
      <!-- 2021-11-14 -->
      <g transform="translate(181.739369 689.038437)scale(0.1 -0.1)">
       <defs>
        <path id="DejaVuSans-34" d="M 2419 4116 
L 825 1625 
L 2419 1625 
L 2419 4116 
z
M 2253 4666 
L 3047 4666 
L 3047 1625 
L 3713 1625 
L 3713 1100 
L 3047 1100 
L 3047 0 
L 2419 0 
L 2419 1100 
L 313 1100 
L 313 1709 
L 2253 4666 
z
" transform="scale(0.015625)"/>
       </defs>
       <use xlink:href="#DejaVuSans-32"/>
       <use xlink:href="#DejaVuSans-30" x="63.623047"/>
       <use xlink:href="#DejaVuSans-32" x="127.246094"/>
       <use xlink:href="#DejaVuSans-31" x="190.869141"/>
       <use xlink:href="#DejaVuSans-2d" x="254.492188"/>
       <use xlink:href="#DejaVuSans-31" x="290.576172"/>
       <use xlink:href="#DejaVuSans-31" x="354.199219"/>
       <use xlink:href="#DejaVuSans-2d" x="417.822266"/>
       <use xlink:href="#DejaVuSans-31" x="453.90625"/>
       <use xlink:href="#DejaVuSans-34" x="517.529297"/>
      </g>
     </g>
    </g>
    <g id="xtick_3">
     <g id="line2d_3">
      <g>
       <use xlink:href="#m01c015858e" x="336.023157" y="674.44" style="stroke: #000000; stroke-width: 0.8"/>
      </g>
     </g>
     <g id="text_3">
      <!-- 2022-01-26 -->
      <g transform="translate(306.965345 689.038437)scale(0.1 -0.1)">
       <use xlink:href="#DejaVuSans-32"/>
       <use xlink:href="#DejaVuSans-30" x="63.623047"/>
       <use xlink:href="#DejaVuSans-32" x="127.246094"/>
       <use xlink:href="#DejaVuSans-32" x="190.869141"/>
       <use xlink:href="#DejaVuSans-2d" x="254.492188"/>
       <use xlink:href="#DejaVuSans-30" x="290.576172"/>
       <use xlink:href="#DejaVuSans-31" x="354.199219"/>
       <use xlink:href="#DejaVuSans-2d" x="417.822266"/>
       <use xlink:href="#DejaVuSans-32" x="453.90625"/>
       <use xlink:href="#DejaVuSans-36" x="517.529297"/>
      </g>
     </g>
    </g>
    <g id="xtick_4">
     <g id="line2d_4">
      <g>
       <use xlink:href="#m01c015858e" x="461.249133" y="674.44" style="stroke: #000000; stroke-width: 0.8"/>
      </g>
     </g>
     <g id="text_4">
      <!-- 2022-03-28 -->
      <g transform="translate(432.191321 689.038437)scale(0.1 -0.1)">
       <defs>
        <path id="DejaVuSans-33" d="M 2597 2516 
Q 3050 2419 3304 2112 
Q 3559 1806 3559 1356 
Q 3559 666 3084 287 
Q 2609 -91 1734 -91 
Q 1441 -91 1130 -33 
Q 819 25 488 141 
L 488 750 
Q 750 597 1062 519 
Q 1375 441 1716 441 
Q 2309 441 2620 675 
Q 2931 909 2931 1356 
Q 2931 1769 2642 2001 
Q 2353 2234 1838 2234 
L 1294 2234 
L 1294 2753 
L 1863 2753 
Q 2328 2753 2575 2939 
Q 2822 3125 2822 3475 
Q 2822 3834 2567 4026 
Q 2313 4219 1838 4219 
Q 1578 4219 1281 4162 
Q 984 4106 628 3988 
L 628 4550 
Q 988 4650 1302 4700 
Q 1616 4750 1894 4750 
Q 2613 4750 3031 4423 
Q 3450 4097 3450 3541 
Q 3450 3153 3228 2886 
Q 3006 2619 2597 2516 
z
" transform="scale(0.015625)"/>
        <path id="DejaVuSans-38" d="M 2034 2216 
Q 1584 2216 1326 1975 
Q 1069 1734 1069 1313 
Q 1069 891 1326 650 
Q 1584 409 2034 409 
Q 2484 409 2743 651 
Q 3003 894 3003 1313 
Q 3003 1734 2745 1975 
Q 2488 2216 2034 2216 
z
M 1403 2484 
Q 997 2584 770 2862 
Q 544 3141 544 3541 
Q 544 4100 942 4425 
Q 1341 4750 2034 4750 
Q 2731 4750 3128 4425 
Q 3525 4100 3525 3541 
Q 3525 3141 3298 2862 
Q 3072 2584 2669 2484 
Q 3125 2378 3379 2068 
Q 3634 1759 3634 1313 
Q 3634 634 3220 271 
Q 2806 -91 2034 -91 
Q 1263 -91 848 271 
Q 434 634 434 1313 
Q 434 1759 690 2068 
Q 947 2378 1403 2484 
z
M 1172 3481 
Q 1172 3119 1398 2916 
Q 1625 2713 2034 2713 
Q 2441 2713 2670 2916 
Q 2900 3119 2900 3481 
Q 2900 3844 2670 4047 
Q 2441 4250 2034 4250 
Q 1625 4250 1398 4047 
Q 1172 3844 1172 3481 
z
" transform="scale(0.015625)"/>
       </defs>
       <use xlink:href="#DejaVuSans-32"/>
       <use xlink:href="#DejaVuSans-30" x="63.623047"/>
       <use xlink:href="#DejaVuSans-32" x="127.246094"/>
       <use xlink:href="#DejaVuSans-32" x="190.869141"/>
       <use xlink:href="#DejaVuSans-2d" x="254.492188"/>
       <use xlink:href="#DejaVuSans-30" x="290.576172"/>
       <use xlink:href="#DejaVuSans-33" x="354.199219"/>
       <use xlink:href="#DejaVuSans-2d" x="417.822266"/>
       <use xlink:href="#DejaVuSans-32" x="453.90625"/>
       <use xlink:href="#DejaVuSans-38" x="517.529297"/>
      </g>
     </g>
    </g>
    <g id="xtick_5">
     <g id="line2d_5">
      <g>
       <use xlink:href="#m01c015858e" x="588.527994" y="674.44" style="stroke: #000000; stroke-width: 0.8"/>
      </g>
     </g>
     <g id="text_5">
      <!-- 2022-05-29 -->
      <g transform="translate(559.470182 689.038437)scale(0.1 -0.1)">
       <defs>
        <path id="DejaVuSans-35" d="M 691 4666 
L 3169 4666 
L 3169 4134 
L 1269 4134 
L 1269 2991 
Q 1406 3038 1543 3061 
Q 1681 3084 1819 3084 
Q 2600 3084 3056 2656 
Q 3513 2228 3513 1497 
Q 3513 744 3044 326 
Q 2575 -91 1722 -91 
Q 1428 -91 1123 -41 
Q 819 9 494 109 
L 494 744 
Q 775 591 1075 516 
Q 1375 441 1709 441 
Q 2250 441 2565 725 
Q 2881 1009 2881 1497 
Q 2881 1984 2565 2268 
Q 2250 2553 1709 2553 
Q 1456 2553 1204 2497 
Q 953 2441 691 2322 
L 691 4666 
z
" transform="scale(0.015625)"/>
       </defs>
       <use xlink:href="#DejaVuSans-32"/>
       <use xlink:href="#DejaVuSans-30" x="63.623047"/>
       <use xlink:href="#DejaVuSans-32" x="127.246094"/>
       <use xlink:href="#DejaVuSans-32" x="190.869141"/>
       <use xlink:href="#DejaVuSans-2d" x="254.492188"/>
       <use xlink:href="#DejaVuSans-30" x="290.576172"/>
       <use xlink:href="#DejaVuSans-35" x="354.199219"/>
       <use xlink:href="#DejaVuSans-2d" x="417.822266"/>
       <use xlink:href="#DejaVuSans-32" x="453.90625"/>
       <use xlink:href="#DejaVuSans-39" x="517.529297"/>
      </g>
     </g>
    </g>
    <g id="xtick_6">
     <g id="line2d_6">
      <g>
       <use xlink:href="#m01c015858e" x="713.75397" y="674.44" style="stroke: #000000; stroke-width: 0.8"/>
      </g>
     </g>
     <g id="text_6">
      <!-- 2022-07-29 -->
      <g transform="translate(684.696158 689.038437)scale(0.1 -0.1)">
       <defs>
        <path id="DejaVuSans-37" d="M 525 4666 
L 3525 4666 
L 3525 4397 
L 1831 0 
L 1172 0 
L 2766 4134 
L 525 4134 
L 525 4666 
z
" transform="scale(0.015625)"/>
       </defs>
       <use xlink:href="#DejaVuSans-32"/>
       <use xlink:href="#DejaVuSans-30" x="63.623047"/>
       <use xlink:href="#DejaVuSans-32" x="127.246094"/>
       <use xlink:href="#DejaVuSans-32" x="190.869141"/>
       <use xlink:href="#DejaVuSans-2d" x="254.492188"/>
       <use xlink:href="#DejaVuSans-30" x="290.576172"/>
       <use xlink:href="#DejaVuSans-37" x="354.199219"/>
       <use xlink:href="#DejaVuSans-2d" x="417.822266"/>
       <use xlink:href="#DejaVuSans-32" x="453.90625"/>
       <use xlink:href="#DejaVuSans-39" x="517.529297"/>
      </g>
     </g>
    </g>
    <g id="text_7">
     <!-- Date -->
     <g transform="translate(425.015634 705.755937)scale(0.14 -0.14)">
      <defs>
       <path id="DejaVuSans-44" d="M 1259 4147 
L 1259 519 
L 2022 519 
Q 2988 519 3436 956 
Q 3884 1394 3884 2338 
Q 3884 3275 3436 3711 
Q 2988 4147 2022 4147 
L 1259 4147 
z
M 628 4666 
L 1925 4666 
Q 3281 4666 3915 4102 
Q 4550 3538 4550 2338 
Q 4550 1131 3912 565 
Q 3275 0 1925 0 
L 628 0 
L 628 4666 
z
" transform="scale(0.015625)"/>
       <path id="DejaVuSans-61" d="M 2194 1759 
Q 1497 1759 1228 1600 
Q 959 1441 959 1056 
Q 959 750 1161 570 
Q 1363 391 1709 391 
Q 2188 391 2477 730 
Q 2766 1069 2766 1631 
L 2766 1759 
L 2194 1759 
z
M 3341 1997 
L 3341 0 
L 2766 0 
L 2766 531 
Q 2569 213 2275 61 
Q 1981 -91 1556 -91 
Q 1019 -91 701 211 
Q 384 513 384 1019 
Q 384 1609 779 1909 
Q 1175 2209 1959 2209 
L 2766 2209 
L 2766 2266 
Q 2766 2663 2505 2880 
Q 2244 3097 1772 3097 
Q 1472 3097 1187 3025 
Q 903 2953 641 2809 
L 641 3341 
Q 956 3463 1253 3523 
Q 1550 3584 1831 3584 
Q 2591 3584 2966 3190 
Q 3341 2797 3341 1997 
z
" transform="scale(0.015625)"/>
       <path id="DejaVuSans-74" d="M 1172 4494 
L 1172 3500 
L 2356 3500 
L 2356 3053 
L 1172 3053 
L 1172 1153 
Q 1172 725 1289 603 
Q 1406 481 1766 481 
L 2356 481 
L 2356 0 
L 1766 0 
Q 1100 0 847 248 
Q 594 497 594 1153 
L 594 3053 
L 172 3053 
L 172 3500 
L 594 3500 
L 594 4494 
L 1172 4494 
z
" transform="scale(0.015625)"/>
       <path id="DejaVuSans-65" d="M 3597 1894 
L 3597 1613 
L 953 1613 
Q 991 1019 1311 708 
Q 1631 397 2203 397 
Q 2534 397 2845 478 
Q 3156 559 3463 722 
L 3463 178 
Q 3153 47 2828 -22 
Q 2503 -91 2169 -91 
Q 1331 -91 842 396 
Q 353 884 353 1716 
Q 353 2575 817 3079 
Q 1281 3584 2069 3584 
Q 2775 3584 3186 3129 
Q 3597 2675 3597 1894 
z
M 3022 2063 
Q 3016 2534 2758 2815 
Q 2500 3097 2075 3097 
Q 1594 3097 1305 2825 
Q 1016 2553 972 2059 
L 3022 2063 
z
" transform="scale(0.015625)"/>
      </defs>
      <use xlink:href="#DejaVuSans-44"/>
      <use xlink:href="#DejaVuSans-61" x="77.001953"/>
      <use xlink:href="#DejaVuSans-74" x="138.28125"/>
      <use xlink:href="#DejaVuSans-65" x="177.490234"/>
     </g>
    </g>
   </g>
   <g id="matplotlib.axis_2">
    <g id="ytick_1">
     <g id="line2d_7">
      <defs>
       <path id="m6fbc8cea56" d="M 0 0 
L -3.5 0 
" style="stroke: #000000; stroke-width: 0.8"/>
      </defs>
      <g>
       <use xlink:href="#m6fbc8cea56" x="54.47" y="644.274545" style="stroke: #000000; stroke-width: 0.8"/>
      </g>
     </g>
     <g id="text_8">
      <!-- 0 -->
      <g transform="translate(41.1075 648.073764)scale(0.1 -0.1)">
       <use xlink:href="#DejaVuSans-30"/>
      </g>
     </g>
    </g>
    <g id="ytick_2">
     <g id="line2d_8">
      <g>
       <use xlink:href="#m6fbc8cea56" x="54.47" y="540.790996" style="stroke: #000000; stroke-width: 0.8"/>
      </g>
     </g>
     <g id="text_9">
      <!-- 100 -->
      <g transform="translate(28.3825 544.590215)scale(0.1 -0.1)">
       <use xlink:href="#DejaVuSans-31"/>
       <use xlink:href="#DejaVuSans-30" x="63.623047"/>
       <use xlink:href="#DejaVuSans-30" x="127.246094"/>
      </g>
     </g>
    </g>
    <g id="ytick_3">
     <g id="line2d_9">
      <g>
       <use xlink:href="#m6fbc8cea56" x="54.47" y="437.307447" style="stroke: #000000; stroke-width: 0.8"/>
      </g>
     </g>
     <g id="text_10">
      <!-- 200 -->
      <g transform="translate(28.3825 441.106666)scale(0.1 -0.1)">
       <use xlink:href="#DejaVuSans-32"/>
       <use xlink:href="#DejaVuSans-30" x="63.623047"/>
       <use xlink:href="#DejaVuSans-30" x="127.246094"/>
      </g>
     </g>
    </g>
    <g id="ytick_4">
     <g id="line2d_10">
      <g>
       <use xlink:href="#m6fbc8cea56" x="54.47" y="333.823898" style="stroke: #000000; stroke-width: 0.8"/>
      </g>
     </g>
     <g id="text_11">
      <!-- 300 -->
      <g transform="translate(28.3825 337.623117)scale(0.1 -0.1)">
       <use xlink:href="#DejaVuSans-33"/>
       <use xlink:href="#DejaVuSans-30" x="63.623047"/>
       <use xlink:href="#DejaVuSans-30" x="127.246094"/>
      </g>
     </g>
    </g>
    <g id="ytick_5">
     <g id="line2d_11">
      <g>
       <use xlink:href="#m6fbc8cea56" x="54.47" y="230.340349" style="stroke: #000000; stroke-width: 0.8"/>
      </g>
     </g>
     <g id="text_12">
      <!-- 400 -->
      <g transform="translate(28.3825 234.139568)scale(0.1 -0.1)">
       <use xlink:href="#DejaVuSans-34"/>
       <use xlink:href="#DejaVuSans-30" x="63.623047"/>
       <use xlink:href="#DejaVuSans-30" x="127.246094"/>
      </g>
     </g>
    </g>
    <g id="ytick_6">
     <g id="line2d_12">
      <g>
       <use xlink:href="#m6fbc8cea56" x="54.47" y="126.8568" style="stroke: #000000; stroke-width: 0.8"/>
      </g>
     </g>
     <g id="text_13">
      <!-- 500 -->
      <g transform="translate(28.3825 130.656019)scale(0.1 -0.1)">
       <use xlink:href="#DejaVuSans-35"/>
       <use xlink:href="#DejaVuSans-30" x="63.623047"/>
       <use xlink:href="#DejaVuSans-30" x="127.246094"/>
      </g>
     </g>
    </g>
    <g id="ytick_7">
     <g id="line2d_13">
      <g>
       <use xlink:href="#m6fbc8cea56" x="54.47" y="23.373251" style="stroke: #000000; stroke-width: 0.8"/>
      </g>
     </g>
     <g id="text_14">
      <!-- 600 -->
      <g transform="translate(28.3825 27.17247)scale(0.1 -0.1)">
       <use xlink:href="#DejaVuSans-36"/>
       <use xlink:href="#DejaVuSans-30" x="63.623047"/>
       <use xlink:href="#DejaVuSans-30" x="127.246094"/>
      </g>
     </g>
    </g>
    <g id="text_15">
     <!-- Number of stars -->
     <g transform="translate(21.470937 399.141719)rotate(-90)scale(0.14 -0.14)">
      <defs>
       <path id="DejaVuSans-4e" d="M 628 4666 
L 1478 4666 
L 3547 763 
L 3547 4666 
L 4159 4666 
L 4159 0 
L 3309 0 
L 1241 3903 
L 1241 0 
L 628 0 
L 628 4666 
z
" transform="scale(0.015625)"/>
       <path id="DejaVuSans-75" d="M 544 1381 
L 544 3500 
L 1119 3500 
L 1119 1403 
Q 1119 906 1312 657 
Q 1506 409 1894 409 
Q 2359 409 2629 706 
Q 2900 1003 2900 1516 
L 2900 3500 
L 3475 3500 
L 3475 0 
L 2900 0 
L 2900 538 
Q 2691 219 2414 64 
Q 2138 -91 1772 -91 
Q 1169 -91 856 284 
Q 544 659 544 1381 
z
M 1991 3584 
L 1991 3584 
z
" transform="scale(0.015625)"/>
       <path id="DejaVuSans-6d" d="M 3328 2828 
Q 3544 3216 3844 3400 
Q 4144 3584 4550 3584 
Q 5097 3584 5394 3201 
Q 5691 2819 5691 2113 
L 5691 0 
L 5113 0 
L 5113 2094 
Q 5113 2597 4934 2840 
Q 4756 3084 4391 3084 
Q 3944 3084 3684 2787 
Q 3425 2491 3425 1978 
L 3425 0 
L 2847 0 
L 2847 2094 
Q 2847 2600 2669 2842 
Q 2491 3084 2119 3084 
Q 1678 3084 1418 2786 
Q 1159 2488 1159 1978 
L 1159 0 
L 581 0 
L 581 3500 
L 1159 3500 
L 1159 2956 
Q 1356 3278 1631 3431 
Q 1906 3584 2284 3584 
Q 2666 3584 2933 3390 
Q 3200 3197 3328 2828 
z
" transform="scale(0.015625)"/>
       <path id="DejaVuSans-62" d="M 3116 1747 
Q 3116 2381 2855 2742 
Q 2594 3103 2138 3103 
Q 1681 3103 1420 2742 
Q 1159 2381 1159 1747 
Q 1159 1113 1420 752 
Q 1681 391 2138 391 
Q 2594 391 2855 752 
Q 3116 1113 3116 1747 
z
M 1159 2969 
Q 1341 3281 1617 3432 
Q 1894 3584 2278 3584 
Q 2916 3584 3314 3078 
Q 3713 2572 3713 1747 
Q 3713 922 3314 415 
Q 2916 -91 2278 -91 
Q 1894 -91 1617 61 
Q 1341 213 1159 525 
L 1159 0 
L 581 0 
L 581 4863 
L 1159 4863 
L 1159 2969 
z
" transform="scale(0.015625)"/>
       <path id="DejaVuSans-72" d="M 2631 2963 
Q 2534 3019 2420 3045 
Q 2306 3072 2169 3072 
Q 1681 3072 1420 2755 
Q 1159 2438 1159 1844 
L 1159 0 
L 581 0 
L 581 3500 
L 1159 3500 
L 1159 2956 
Q 1341 3275 1631 3429 
Q 1922 3584 2338 3584 
Q 2397 3584 2469 3576 
Q 2541 3569 2628 3553 
L 2631 2963 
z
" transform="scale(0.015625)"/>
       <path id="DejaVuSans-20" transform="scale(0.015625)"/>
       <path id="DejaVuSans-6f" d="M 1959 3097 
Q 1497 3097 1228 2736 
Q 959 2375 959 1747 
Q 959 1119 1226 758 
Q 1494 397 1959 397 
Q 2419 397 2687 759 
Q 2956 1122 2956 1747 
Q 2956 2369 2687 2733 
Q 2419 3097 1959 3097 
z
M 1959 3584 
Q 2709 3584 3137 3096 
Q 3566 2609 3566 1747 
Q 3566 888 3137 398 
Q 2709 -91 1959 -91 
Q 1206 -91 779 398 
Q 353 888 353 1747 
Q 353 2609 779 3096 
Q 1206 3584 1959 3584 
z
" transform="scale(0.015625)"/>
       <path id="DejaVuSans-66" d="M 2375 4863 
L 2375 4384 
L 1825 4384 
Q 1516 4384 1395 4259 
Q 1275 4134 1275 3809 
L 1275 3500 
L 2222 3500 
L 2222 3053 
L 1275 3053 
L 1275 0 
L 697 0 
L 697 3053 
L 147 3053 
L 147 3500 
L 697 3500 
L 697 3744 
Q 697 4328 969 4595 
Q 1241 4863 1831 4863 
L 2375 4863 
z
" transform="scale(0.015625)"/>
       <path id="DejaVuSans-73" d="M 2834 3397 
L 2834 2853 
Q 2591 2978 2328 3040 
Q 2066 3103 1784 3103 
Q 1356 3103 1142 2972 
Q 928 2841 928 2578 
Q 928 2378 1081 2264 
Q 1234 2150 1697 2047 
L 1894 2003 
Q 2506 1872 2764 1633 
Q 3022 1394 3022 966 
Q 3022 478 2636 193 
Q 2250 -91 1575 -91 
Q 1294 -91 989 -36 
Q 684 19 347 128 
L 347 722 
Q 666 556 975 473 
Q 1284 391 1588 391 
Q 1994 391 2212 530 
Q 2431 669 2431 922 
Q 2431 1156 2273 1281 
Q 2116 1406 1581 1522 
L 1381 1569 
Q 847 1681 609 1914 
Q 372 2147 372 2553 
Q 372 3047 722 3315 
Q 1072 3584 1716 3584 
Q 2034 3584 2315 3537 
Q 2597 3491 2834 3397 
z
" transform="scale(0.015625)"/>
      </defs>
      <use xlink:href="#DejaVuSans-4e"/>
      <use xlink:href="#DejaVuSans-75" x="74.804688"/>
      <use xlink:href="#DejaVuSans-6d" x="138.183594"/>
      <use xlink:href="#DejaVuSans-62" x="235.595703"/>
      <use xlink:href="#DejaVuSans-65" x="299.072266"/>
      <use xlink:href="#DejaVuSans-72" x="360.595703"/>
      <use xlink:href="#DejaVuSans-20" x="401.708984"/>
      <use xlink:href="#DejaVuSans-6f" x="433.496094"/>
      <use xlink:href="#DejaVuSans-66" x="494.677734"/>
      <use xlink:href="#DejaVuSans-20" x="529.882812"/>
      <use xlink:href="#DejaVuSans-73" x="561.669922"/>
      <use xlink:href="#DejaVuSans-74" x="613.769531"/>
      <use xlink:href="#DejaVuSans-61" x="652.978516"/>
      <use xlink:href="#DejaVuSans-72" x="714.257812"/>
      <use xlink:href="#DejaVuSans-73" x="755.371094"/>
     </g>
    </g>
   </g>
   <g id="line2d_14">
    <path d="M 89.676975 381.426331 
L 93.782745 381.426331 
L 95.83563 377.286989 
L 99.941399 377.286989 
L 101.994284 376.252153 
L 104.047169 376.252153 
L 106.100054 369.008305 
L 108.152939 358.65995 
L 114.311593 355.555444 
L 116.364478 355.555444 
L 118.417363 354.520608 
L 122.523133 354.520608 
L 124.576018 352.450937 
L 126.628903 352.450937 
L 128.681787 351.416102 
L 130.734672 349.346431 
L 132.787557 349.346431 
L 134.840442 347.27676 
L 136.893327 347.27676 
L 138.946212 346.241924 
L 140.999096 346.241924 
L 145.104866 344.172253 
L 149.210636 344.172253 
L 153.316406 342.102582 
L 155.36929 342.102582 
L 157.422175 341.067747 
L 161.527945 341.067747 
L 163.58083 340.032911 
L 173.845254 340.032911 
L 175.898139 338.998076 
L 182.056794 338.998076 
L 184.109678 337.96324 
L 188.215448 337.96324 
L 190.268333 336.928405 
L 202.585642 336.928405 
L 204.638527 335.893569 
L 206.691412 333.823898 
L 210.797181 333.823898 
L 214.902951 331.754227 
L 216.955836 331.754227 
L 219.008721 332.789063 
L 237.484685 332.789063 
L 239.537569 331.754227 
L 241.590454 331.754227 
L 243.643339 330.719392 
L 247.749109 330.719392 
L 249.801994 329.684556 
L 251.854878 329.684556 
L 253.907763 260.350579 
L 255.960648 254.141566 
L 258.013533 252.071895 
L 260.066418 251.037059 
L 262.119303 251.037059 
L 264.172188 243.793211 
L 266.225072 216.887488 
L 268.277957 207.573969 
L 270.330842 202.399791 
L 272.383727 201.364956 
L 274.436612 197.225614 
L 276.489497 187.912094 
L 278.542382 175.494068 
L 280.595266 170.319891 
L 282.648151 171.354726 
L 284.701036 169.285055 
L 286.753921 169.285055 
L 290.859691 165.145713 
L 292.912576 165.145713 
L 294.96546 163.076042 
L 299.07123 163.076042 
L 301.124115 162.041207 
L 303.177 162.041207 
L 307.282769 157.901865 
L 309.335654 157.901865 
L 311.388539 156.867029 
L 317.547194 156.867029 
L 319.600079 154.797358 
L 321.652963 153.762523 
L 323.705848 153.762523 
L 325.758733 151.692852 
L 329.864503 151.692852 
L 331.917388 150.658017 
L 336.023157 150.658017 
L 340.128927 148.588346 
L 342.181812 146.518675 
L 344.234697 146.518675 
L 346.287582 147.55351 
L 348.340467 145.483839 
L 350.393351 145.483839 
L 352.446236 144.449004 
L 354.499121 144.449004 
L 356.552006 145.483839 
L 360.657776 145.483839 
L 364.763545 143.414168 
L 375.02797 143.414168 
L 377.080854 140.309662 
L 379.133739 140.309662 
L 381.186624 139.274826 
L 383.239509 139.274826 
L 385.292394 138.239991 
L 391.451048 138.239991 
L 395.556818 136.17032 
L 399.662588 136.17032 
L 401.715473 134.100649 
L 403.768358 134.100649 
L 405.821242 130.996142 
L 407.874127 132.030978 
L 411.979897 132.030978 
L 414.032782 130.996142 
L 424.297206 130.996142 
L 428.402976 128.926471 
L 432.508745 128.926471 
L 434.56163 127.891636 
L 440.720285 127.891636 
L 442.77317 126.8568 
L 446.878939 126.8568 
L 448.931824 122.717458 
L 450.984709 119.612952 
L 453.037594 118.578116 
L 455.090479 116.508445 
L 457.143364 116.508445 
L 459.196249 114.438774 
L 481.777982 114.438774 
L 483.830867 113.403939 
L 489.989521 113.403939 
L 492.042406 112.369103 
L 494.095291 112.369103 
L 496.148176 111.334268 
L 500.253946 111.334268 
L 502.30683 110.299432 
L 508.465485 110.299432 
L 510.51837 104.090419 
L 514.62414 104.090419 
L 518.729909 102.020748 
L 520.782794 102.020748 
L 526.941449 98.916242 
L 531.047218 98.916242 
L 533.100103 97.881407 
L 543.364527 97.881407 
L 547.470297 95.811736 
L 549.523182 95.811736 
L 551.576067 94.7769 
L 572.104915 94.7769 
L 574.1578 93.742065 
L 576.210685 93.742065 
L 578.26357 92.707229 
L 586.475109 92.707229 
L 592.633764 89.602723 
L 602.898188 89.602723 
L 604.951073 88.567887 
L 607.003958 88.567887 
L 611.109728 86.498216 
L 613.162612 84.428545 
L 619.321267 84.428545 
L 623.427037 82.358874 
L 629.585691 82.358874 
L 631.638576 81.324039 
L 633.691461 81.324039 
L 637.797231 79.254368 
L 639.850115 76.149861 
L 643.955885 74.08019 
L 646.00877 72.010519 
L 650.11454 72.010519 
L 654.220309 69.940848 
L 656.273194 69.940848 
L 658.326079 68.906013 
L 662.431849 68.906013 
L 664.484734 69.940848 
L 672.696273 69.940848 
L 674.749158 68.906013 
L 676.802043 68.906013 
L 678.854928 67.871177 
L 680.907812 65.801506 
L 682.960697 62.697 
L 685.013582 62.697 
L 687.066467 63.731835 
L 691.172237 63.731835 
L 693.225122 61.662164 
L 695.278006 58.557658 
L 701.436661 58.557658 
L 703.489546 57.522822 
L 707.595316 57.522822 
L 709.6482 55.453151 
L 711.701085 55.453151 
L 713.75397 54.418316 
L 721.96551 54.418316 
L 724.018394 53.38348 
L 726.071279 53.38348 
L 730.177049 51.313809 
L 736.335703 51.313809 
L 738.388588 49.244138 
L 740.441473 49.244138 
L 746.600128 46.139632 
L 752.758782 46.139632 
L 754.811667 47.174467 
L 760.970322 47.174467 
L 763.023207 45.104797 
L 779.446285 45.104797 
L 781.49917 43.035126 
L 789.71071 43.035126 
L 793.816479 40.965455 
L 793.816479 40.965455 
" clip-path="url(#p0a4d71d540)" style="fill: none; stroke: #1f77b4; stroke-width: 3; stroke-linecap: square"/>
   </g>
   <g id="line2d_15">
    <path d="M 89.676975 318.301366 
L 128.681787 318.301366 
L 130.734672 317.26653 
L 149.210636 317.26653 
L 151.263521 316.231695 
L 159.47506 316.231695 
L 163.58083 314.162024 
L 210.797181 314.162024 
L 212.850066 315.19686 
L 214.902951 315.19686 
L 216.955836 314.162024 
L 239.537569 314.162024 
L 241.590454 315.19686 
L 288.806806 315.19686 
L 290.859691 314.162024 
L 331.917388 314.162024 
L 333.970273 313.127189 
L 336.023157 313.127189 
L 338.076042 312.092353 
L 370.9222 312.092353 
L 372.975085 313.127189 
L 375.02797 313.127189 
L 377.080854 314.162024 
L 479.725097 314.162024 
L 483.830867 316.231695 
L 502.30683 316.231695 
L 504.359715 317.26653 
L 522.835679 317.26653 
L 524.888564 318.301366 
L 582.36934 318.301366 
L 584.422224 319.336201 
L 771.234746 319.336201 
L 773.287631 320.371037 
L 783.552055 320.371037 
L 785.60494 319.336201 
L 791.763594 319.336201 
L 793.816479 318.301366 
L 793.816479 318.301366 
" clip-path="url(#p0a4d71d540)" style="fill: none; stroke: #ff7f0e; stroke-width: 3; stroke-linecap: square"/>
   </g>
   <g id="line2d_16">
    <path d="M 89.676975 450.760309 
L 128.681787 450.760309 
L 130.734672 449.725473 
L 149.210636 449.725473 
L 151.263521 447.655802 
L 153.316406 447.655802 
L 159.47506 444.551296 
L 161.527945 444.551296 
L 163.58083 445.586131 
L 175.898139 445.586131 
L 180.003909 443.51646 
L 200.532757 443.51646 
L 202.585642 442.481625 
L 229.273145 442.481625 
L 231.32603 441.446789 
L 251.854878 441.446789 
L 253.907763 434.202941 
L 280.595266 434.202941 
L 282.648151 433.168105 
L 331.917388 433.168105 
L 333.970273 432.13327 
L 383.239509 432.13327 
L 385.292394 431.098434 
L 405.821242 431.098434 
L 407.874127 432.13327 
L 422.244321 432.13327 
L 424.297206 431.098434 
L 463.302018 431.098434 
L 465.354903 432.13327 
L 547.470297 432.13327 
L 549.523182 431.098434 
L 553.628952 431.098434 
L 555.681837 430.063599 
L 578.26357 430.063599 
L 580.316455 429.028763 
L 590.580879 429.028763 
L 592.633764 427.993928 
L 617.268382 427.993928 
L 619.321267 425.924257 
L 633.691461 425.924257 
L 635.744346 424.889421 
L 637.797231 424.889421 
L 639.850115 423.854586 
L 666.537619 423.854586 
L 670.643388 421.784915 
L 682.960697 421.784915 
L 685.013582 420.75008 
L 687.066467 420.75008 
L 689.119352 419.715244 
L 724.018394 419.715244 
L 726.071279 418.680409 
L 744.547243 418.680409 
L 746.600128 417.645573 
L 793.816479 417.645573 
L 793.816479 417.645573 
" clip-path="url(#p0a4d71d540)" style="fill: none; stroke: #2ca02c; stroke-width: 3; stroke-linecap: square"/>
   </g>
   <g id="line2d_17">
    <path d="M 89.676975 418.680409 
L 161.527945 418.680409 
L 163.58083 419.715244 
L 192.321218 419.715244 
L 194.374103 418.680409 
L 251.854878 418.680409 
L 253.907763 417.645573 
L 297.018345 417.645573 
L 299.07123 418.680409 
L 348.340467 418.680409 
L 350.393351 419.715244 
L 379.133739 419.715244 
L 381.186624 418.680409 
L 391.451048 418.680409 
L 393.503933 417.645573 
L 405.821242 417.645573 
L 407.874127 418.680409 
L 763.023207 418.680409 
L 765.076091 419.715244 
L 793.816479 419.715244 
L 793.816479 419.715244 
" clip-path="url(#p0a4d71d540)" style="fill: none; stroke: #d62728; stroke-width: 3; stroke-linecap: square"/>
   </g>
   <g id="line2d_18">
    <path d="M 89.676975 532.512312 
L 93.782745 532.512312 
L 95.83563 531.477477 
L 101.994284 531.477477 
L 104.047169 530.442642 
L 126.628903 530.442642 
L 128.681787 529.407806 
L 132.787557 529.407806 
L 134.840442 528.372971 
L 171.792369 528.372971 
L 173.845254 527.338135 
L 177.951024 527.338135 
L 180.003909 526.3033 
L 188.215448 526.3033 
L 190.268333 525.268464 
L 198.479872 525.268464 
L 200.532757 523.198793 
L 206.691412 523.198793 
L 208.744297 522.163958 
L 210.797181 522.163958 
L 216.955836 519.059451 
L 233.378915 519.059451 
L 235.4318 520.094287 
L 245.696224 520.094287 
L 247.749109 519.059451 
L 251.854878 519.059451 
L 253.907763 518.024616 
L 260.066418 518.024616 
L 262.119303 516.98978 
L 288.806806 516.98978 
L 290.859691 515.954945 
L 294.96546 515.954945 
L 297.018345 514.920109 
L 303.177 514.920109 
L 307.282769 512.850438 
L 331.917388 512.850438 
L 333.970273 511.815603 
L 344.234697 511.815603 
L 346.287582 510.780767 
L 360.657776 510.780767 
L 362.71066 509.745932 
L 385.292394 509.745932 
L 387.345279 508.711096 
L 389.398164 508.711096 
L 391.451048 507.676261 
L 418.138551 507.676261 
L 420.191436 506.641425 
L 485.883752 506.641425 
L 487.936636 505.60659 
L 489.989521 505.60659 
L 492.042406 504.571754 
L 502.30683 504.571754 
L 504.359715 503.536919 
L 508.465485 503.536919 
L 510.51837 504.571754 
L 524.888564 504.571754 
L 526.941449 503.536919 
L 528.994333 501.467248 
L 541.311643 501.467248 
L 543.364527 500.432412 
L 565.946261 500.432412 
L 567.999146 499.397577 
L 584.422224 499.397577 
L 586.475109 498.362741 
L 590.580879 498.362741 
L 592.633764 497.327906 
L 602.898188 497.327906 
L 604.951073 496.29307 
L 678.854928 496.29307 
L 680.907812 495.258235 
L 689.119352 495.258235 
L 693.225122 493.188564 
L 697.330891 493.188564 
L 699.383776 492.153728 
L 721.96551 492.153728 
L 724.018394 491.118893 
L 728.124164 491.118893 
L 730.177049 490.084057 
L 754.811667 490.084057 
L 756.864552 489.049222 
L 771.234746 489.049222 
L 773.287631 488.014386 
L 783.552055 488.014386 
L 785.60494 486.979551 
L 789.71071 486.979551 
L 791.763594 485.944715 
L 793.816479 485.944715 
L 793.816479 485.944715 
" clip-path="url(#p0a4d71d540)" style="fill: none; stroke: #9467bd; stroke-width: 3; stroke-linecap: square"/>
   </g>
   <g id="line2d_19">
    <path d="M 89.676975 531.477477 
L 116.364478 531.477477 
L 120.470248 529.407806 
L 122.523133 529.407806 
L 124.576018 528.372971 
L 151.263521 528.372971 
L 153.316406 527.338135 
L 188.215448 527.338135 
L 192.321218 525.268464 
L 200.532757 525.268464 
L 202.585642 524.233629 
L 301.124115 524.233629 
L 303.177 523.198793 
L 354.499121 523.198793 
L 356.552006 524.233629 
L 370.9222 524.233629 
L 372.975085 523.198793 
L 397.609703 523.198793 
L 399.662588 522.163958 
L 409.927012 522.163958 
L 414.032782 520.094287 
L 426.350091 520.094287 
L 428.402976 519.059451 
L 430.455861 520.094287 
L 436.614515 520.094287 
L 438.6674 519.059451 
L 440.720285 519.059451 
L 442.77317 516.98978 
L 455.090479 516.98978 
L 457.143364 514.920109 
L 461.249133 514.920109 
L 463.302018 513.885274 
L 522.835679 513.885274 
L 524.888564 514.920109 
L 535.152988 514.920109 
L 537.205873 512.850438 
L 553.628952 512.850438 
L 555.681837 511.815603 
L 570.052031 511.815603 
L 572.104915 512.850438 
L 580.316455 512.850438 
L 582.36934 511.815603 
L 590.580879 511.815603 
L 592.633764 510.780767 
L 594.686649 510.780767 
L 596.739534 509.745932 
L 602.898188 509.745932 
L 604.951073 508.711096 
L 631.638576 508.711096 
L 633.691461 507.676261 
L 670.643388 507.676261 
L 672.696273 506.641425 
L 695.278006 506.641425 
L 697.330891 505.60659 
L 732.229934 505.60659 
L 734.282819 504.571754 
L 744.547243 504.571754 
L 746.600128 503.536919 
L 793.816479 503.536919 
L 793.816479 503.536919 
" clip-path="url(#p0a4d71d540)" style="fill: none; stroke: #8c564b; stroke-width: 3; stroke-linecap: square"/>
   </g>
   <g id="line2d_20">
    <path d="M 89.676975 558.3832 
L 114.311593 558.3832 
L 116.364478 557.348364 
L 118.417363 553.209022 
L 120.470248 553.209022 
L 124.576018 551.139351 
L 126.628903 551.139351 
L 130.734672 549.06968 
L 145.104866 549.06968 
L 149.210636 547.000009 
L 157.422175 547.000009 
L 159.47506 544.930338 
L 163.58083 544.930338 
L 165.633715 543.895503 
L 184.109678 543.895503 
L 186.162563 542.860667 
L 188.215448 542.860667 
L 190.268333 541.825832 
L 214.902951 541.825832 
L 216.955836 540.790996 
L 251.854878 540.790996 
L 253.907763 539.756161 
L 276.489497 539.756161 
L 280.595266 537.68649 
L 305.229885 537.68649 
L 307.282769 536.651654 
L 338.076042 536.651654 
L 340.128927 535.616819 
L 348.340467 535.616819 
L 350.393351 534.581983 
L 354.499121 534.581983 
L 356.552006 535.616819 
L 358.604891 534.581983 
L 426.350091 534.581983 
L 428.402976 533.547148 
L 483.830867 533.547148 
L 485.883752 532.512312 
L 492.042406 532.512312 
L 494.095291 531.477477 
L 500.253946 531.477477 
L 502.30683 530.442642 
L 524.888564 530.442642 
L 526.941449 529.407806 
L 533.100103 529.407806 
L 535.152988 528.372971 
L 541.311643 528.372971 
L 543.364527 527.338135 
L 592.633764 527.338135 
L 594.686649 526.3033 
L 643.955885 526.3033 
L 646.00877 525.268464 
L 662.431849 525.268464 
L 664.484734 524.233629 
L 732.229934 524.233629 
L 734.282819 525.268464 
L 744.547243 525.268464 
L 746.600128 524.233629 
L 793.816479 524.233629 
L 793.816479 524.233629 
" clip-path="url(#p0a4d71d540)" style="fill: none; stroke: #e377c2; stroke-width: 3; stroke-linecap: square"/>
   </g>
   <g id="line2d_21">
    <path d="M 89.676975 547.000009 
L 110.205824 547.000009 
L 112.258709 545.965174 
L 122.523133 545.965174 
L 124.576018 544.930338 
L 147.157751 544.930338 
L 149.210636 543.895503 
L 155.36929 543.895503 
L 157.422175 542.860667 
L 161.527945 542.860667 
L 163.58083 543.895503 
L 173.845254 543.895503 
L 175.898139 542.860667 
L 204.638527 542.860667 
L 206.691412 541.825832 
L 214.902951 541.825832 
L 216.955836 540.790996 
L 231.32603 540.790996 
L 233.378915 539.756161 
L 307.282769 539.756161 
L 309.335654 538.721325 
L 333.970273 538.721325 
L 336.023157 537.68649 
L 338.076042 537.68649 
L 340.128927 536.651654 
L 362.71066 536.651654 
L 364.763545 535.616819 
L 375.02797 535.616819 
L 377.080854 536.651654 
L 475.619327 536.651654 
L 477.672212 535.616819 
L 494.095291 535.616819 
L 498.201061 533.547148 
L 522.835679 533.547148 
L 524.888564 532.512312 
L 535.152988 532.512312 
L 537.205873 531.477477 
L 553.628952 531.477477 
L 555.681837 530.442642 
L 594.686649 530.442642 
L 596.739534 529.407806 
L 607.003958 529.407806 
L 609.056843 528.372971 
L 668.590503 528.372971 
L 670.643388 527.338135 
L 711.701085 527.338135 
L 713.75397 526.3033 
L 793.816479 526.3033 
L 793.816479 526.3033 
" clip-path="url(#p0a4d71d540)" style="fill: none; stroke: #7f7f7f; stroke-width: 3; stroke-linecap: square"/>
   </g>
   <g id="line2d_22">
    <path d="M 89.676975 536.651654 
L 143.051981 536.651654 
L 145.104866 535.616819 
L 149.210636 535.616819 
L 151.263521 534.581983 
L 325.758733 534.581983 
L 327.811618 533.547148 
L 381.186624 533.547148 
L 383.239509 532.512312 
L 469.460673 532.512312 
L 471.513558 531.477477 
L 512.571255 531.477477 
L 514.62414 530.442642 
L 524.888564 530.442642 
L 526.941449 531.477477 
L 652.167425 531.477477 
L 654.220309 530.442642 
L 709.6482 530.442642 
L 711.701085 529.407806 
L 744.547243 529.407806 
L 746.600128 528.372971 
L 769.181861 528.372971 
L 771.234746 527.338135 
L 793.816479 527.338135 
L 793.816479 527.338135 
" clip-path="url(#p0a4d71d540)" style="fill: none; stroke: #bcbd22; stroke-width: 3; stroke-linecap: square"/>
   </g>
   <g id="line2d_23">
    <path d="M 89.676975 561.487706 
L 114.311593 561.487706 
L 116.364478 560.452871 
L 151.263521 560.452871 
L 153.316406 559.418035 
L 190.268333 559.418035 
L 192.321218 558.3832 
L 198.479872 558.3832 
L 200.532757 557.348364 
L 251.854878 557.348364 
L 253.907763 556.313529 
L 405.821242 556.313529 
L 407.874127 555.278693 
L 559.787606 555.278693 
L 563.893376 553.209022 
L 565.946261 553.209022 
L 567.999146 552.174187 
L 570.052031 552.174187 
L 572.104915 551.139351 
L 578.26357 551.139351 
L 580.316455 552.174187 
L 594.686649 552.174187 
L 596.739534 550.104516 
L 602.898188 550.104516 
L 604.951073 549.06968 
L 635.744346 549.06968 
L 637.797231 548.034845 
L 664.484734 548.034845 
L 666.537619 545.965174 
L 705.542431 545.965174 
L 707.595316 544.930338 
L 711.701085 544.930338 
L 713.75397 543.895503 
L 750.705897 543.895503 
L 752.758782 542.860667 
L 793.816479 542.860667 
L 793.816479 542.860667 
" clip-path="url(#p0a4d71d540)" style="fill: none; stroke: #17becf; stroke-width: 3; stroke-linecap: square"/>
   </g>
   <g id="line2d_24">
    <path d="M 89.676975 597.706948 
L 101.994284 597.706948 
L 104.047169 596.672113 
L 114.311593 596.672113 
L 116.364478 592.532771 
L 118.417363 589.428264 
L 120.470248 589.428264 
L 122.523133 588.393429 
L 126.628903 588.393429 
L 128.681787 586.323758 
L 163.58083 586.323758 
L 167.6866 584.254087 
L 200.532757 584.254087 
L 204.638527 582.184416 
L 212.850066 582.184416 
L 214.902951 581.149581 
L 251.854878 581.149581 
L 253.907763 580.114745 
L 260.066418 580.114745 
L 262.119303 579.07991 
L 278.542382 579.07991 
L 280.595266 578.045074 
L 311.388539 578.045074 
L 315.494309 565.627048 
L 317.547194 564.592213 
L 321.652963 564.592213 
L 323.705848 565.627048 
L 348.340467 565.627048 
L 350.393351 564.592213 
L 440.720285 564.592213 
L 442.77317 563.557377 
L 450.984709 563.557377 
L 453.037594 562.522542 
L 498.201061 562.522542 
L 500.253946 560.452871 
L 516.677024 560.452871 
L 518.729909 559.418035 
L 524.888564 559.418035 
L 526.941449 558.3832 
L 551.576067 558.3832 
L 555.681837 556.313529 
L 570.052031 556.313529 
L 572.104915 555.278693 
L 576.210685 555.278693 
L 578.26357 554.243858 
L 623.427037 554.243858 
L 625.479921 553.209022 
L 643.955885 553.209022 
L 646.00877 552.174187 
L 697.330891 552.174187 
L 699.383776 553.209022 
L 732.229934 553.209022 
L 734.282819 552.174187 
L 744.547243 552.174187 
L 746.600128 551.139351 
L 779.446285 551.139351 
L 781.49917 550.104516 
L 793.816479 550.104516 
L 793.816479 550.104516 
" clip-path="url(#p0a4d71d540)" style="fill: none; stroke: #1f77b4; stroke-width: 3; stroke-linecap: square"/>
   </g>
   <g id="line2d_25">
    <path d="M 89.676975 587.358593 
L 161.527945 587.358593 
L 163.58083 588.393429 
L 184.109678 588.393429 
L 186.162563 587.358593 
L 198.479872 587.358593 
L 200.532757 586.323758 
L 208.744297 586.323758 
L 210.797181 585.288923 
L 247.749109 585.288923 
L 249.801994 584.254087 
L 383.239509 584.254087 
L 385.292394 583.219252 
L 397.609703 583.219252 
L 399.662588 582.184416 
L 428.402976 582.184416 
L 430.455861 583.219252 
L 455.090479 583.219252 
L 457.143364 582.184416 
L 510.51837 582.184416 
L 512.571255 581.149581 
L 711.701085 581.149581 
L 713.75397 580.114745 
L 767.128976 580.114745 
L 769.181861 579.07991 
L 793.816479 579.07991 
L 793.816479 579.07991 
" clip-path="url(#p0a4d71d540)" style="fill: none; stroke: #ff7f0e; stroke-width: 3; stroke-linecap: square"/>
   </g>
   <g id="line2d_26">
    <path d="M 89.676975 626.682342 
L 147.157751 626.682342 
L 149.210636 625.647507 
L 175.898139 625.647507 
L 177.951024 624.612671 
L 182.056794 624.612671 
L 184.109678 622.543 
L 214.902951 622.543 
L 216.955836 621.508165 
L 239.537569 621.508165 
L 241.590454 622.543 
L 251.854878 622.543 
L 253.907763 621.508165 
L 272.383727 621.508165 
L 274.436612 619.438494 
L 362.71066 619.438494 
L 364.763545 618.403658 
L 368.869315 618.403658 
L 370.9222 617.368823 
L 436.614515 617.368823 
L 438.6674 616.333987 
L 520.782794 616.333987 
L 522.835679 615.299152 
L 541.311643 615.299152 
L 543.364527 614.264316 
L 590.580879 614.264316 
L 592.633764 613.229481 
L 611.109728 613.229481 
L 613.162612 612.194645 
L 619.321267 612.194645 
L 621.374152 611.15981 
L 623.427037 611.15981 
L 625.479921 610.124974 
L 646.00877 610.124974 
L 648.061655 609.090139 
L 668.590503 609.090139 
L 670.643388 608.055303 
L 678.854928 608.055303 
L 680.907812 607.020468 
L 682.960697 607.020468 
L 685.013582 605.985632 
L 740.441473 605.985632 
L 744.547243 601.84629 
L 746.600128 600.811455 
L 748.653013 600.811455 
L 750.705897 597.706948 
L 752.758782 597.706948 
L 754.811667 595.637277 
L 758.917437 595.637277 
L 760.970322 594.602442 
L 769.181861 594.602442 
L 771.234746 593.567606 
L 779.446285 593.567606 
L 781.49917 592.532771 
L 793.816479 592.532771 
L 793.816479 592.532771 
" clip-path="url(#p0a4d71d540)" style="fill: none; stroke: #2ca02c; stroke-width: 3; stroke-linecap: square"/>
   </g>
   <g id="line2d_27">
    <path d="M 89.676975 615.299152 
L 116.364478 615.299152 
L 118.417363 614.264316 
L 188.215448 614.264316 
L 190.268333 612.194645 
L 196.426987 612.194645 
L 198.479872 611.15981 
L 221.061606 611.15981 
L 223.114491 610.124974 
L 233.378915 610.124974 
L 235.4318 611.15981 
L 303.177 611.15981 
L 305.229885 610.124974 
L 309.335654 610.124974 
L 311.388539 609.090139 
L 315.494309 609.090139 
L 317.547194 608.055303 
L 450.984709 608.055303 
L 453.037594 607.020468 
L 479.725097 607.020468 
L 481.777982 605.985632 
L 510.51837 605.985632 
L 512.571255 604.950797 
L 541.311643 604.950797 
L 543.364527 603.915961 
L 549.523182 603.915961 
L 551.576067 602.881126 
L 594.686649 602.881126 
L 596.739534 601.84629 
L 609.056843 601.84629 
L 611.109728 600.811455 
L 713.75397 600.811455 
L 715.806855 599.776619 
L 793.816479 599.776619 
L 793.816479 599.776619 
" clip-path="url(#p0a4d71d540)" style="fill: none; stroke: #d62728; stroke-width: 3; stroke-linecap: square"/>
   </g>
   <g id="line2d_28">
    <path d="M 89.676975 616.333987 
L 114.311593 616.333987 
L 116.364478 615.299152 
L 147.157751 615.299152 
L 149.210636 614.264316 
L 161.527945 614.264316 
L 163.58083 615.299152 
L 177.951024 615.299152 
L 180.003909 614.264316 
L 233.378915 614.264316 
L 235.4318 615.299152 
L 251.854878 615.299152 
L 253.907763 614.264316 
L 372.975085 614.264316 
L 375.02797 613.229481 
L 489.989521 613.229481 
L 492.042406 612.194645 
L 506.4126 612.194645 
L 508.465485 611.15981 
L 537.205873 611.15981 
L 539.258758 610.124974 
L 666.537619 610.124974 
L 668.590503 609.090139 
L 728.124164 609.090139 
L 730.177049 608.055303 
L 793.816479 608.055303 
L 793.816479 608.055303 
" clip-path="url(#p0a4d71d540)" style="fill: none; stroke: #9467bd; stroke-width: 3; stroke-linecap: square"/>
   </g>
   <g id="line2d_29">
    <path d="M 89.676975 626.682342 
L 711.701085 626.682342 
L 713.75397 625.647507 
L 793.816479 625.647507 
L 793.816479 625.647507 
" clip-path="url(#p0a4d71d540)" style="fill: none; stroke: #000000; stroke-width: 3; stroke-linecap: square"/>
   </g>
   <g id="line2d_30">
    <path d="M 93.782745 629.786849 
L 251.854878 629.786849 
L 253.907763 627.717178 
L 744.547243 627.717178 
L 746.600128 626.682342 
L 783.552055 626.682342 
L 785.60494 625.647507 
L 793.816479 625.647507 
L 793.816479 625.647507 
" clip-path="url(#p0a4d71d540)" style="fill: none; stroke: #000000; stroke-width: 3; stroke-linecap: square"/>
   </g>
   <g id="line2d_31">
    <path d="M 89.676975 635.995862 
L 660.378964 635.995862 
L 662.431849 634.961026 
L 793.816479 634.961026 
L 793.816479 634.961026 
" clip-path="url(#p0a4d71d540)" style="fill: none; stroke: #000000; stroke-width: 3; stroke-linecap: square"/>
   </g>
   <g id="line2d_32">
    <path d="M 89.676975 635.995862 
L 508.465485 635.995862 
L 510.51837 634.961026 
L 793.816479 634.961026 
L 793.816479 634.961026 
" clip-path="url(#p0a4d71d540)" style="fill: none; stroke: #000000; stroke-width: 3; stroke-linecap: square"/>
   </g>
   <g id="line2d_33">
    <path d="M 89.676975 640.135203 
L 116.364478 640.135203 
L 118.417363 639.100368 
L 319.600079 639.100368 
L 321.652963 638.065533 
L 379.133739 638.065533 
L 381.186624 637.030697 
L 526.941449 637.030697 
L 528.994333 635.995862 
L 685.013582 635.995862 
L 687.066467 634.961026 
L 793.816479 634.961026 
L 793.816479 634.961026 
" clip-path="url(#p0a4d71d540)" style="fill: none; stroke: #000000; stroke-width: 3; stroke-linecap: square"/>
   </g>
   <g id="line2d_34">
    <path d="M 89.676975 639.100368 
L 188.215448 639.100368 
L 190.268333 638.065533 
L 793.816479 638.065533 
L 793.816479 638.065533 
" clip-path="url(#p0a4d71d540)" style="fill: none; stroke: #000000; stroke-width: 3; stroke-linecap: square"/>
   </g>
   <g id="line2d_35">
    <path d="M 89.676975 640.135203 
L 793.816479 640.135203 
L 793.816479 640.135203 
" clip-path="url(#p0a4d71d540)" style="fill: none; stroke: #000000; stroke-width: 3; stroke-linecap: square"/>
   </g>
   <g id="line2d_36">
    <path d="M 89.676975 641.170039 
L 793.816479 641.170039 
L 793.816479 641.170039 
" clip-path="url(#p0a4d71d540)" style="fill: none; stroke: #000000; stroke-width: 3; stroke-linecap: square"/>
   </g>
   <g id="line2d_37">
    <path d="M 89.676975 642.204874 
L 793.816479 642.204874 
L 793.816479 642.204874 
" clip-path="url(#p0a4d71d540)" style="fill: none; stroke: #000000; stroke-width: 3; stroke-linecap: square"/>
   </g>
   <g id="line2d_38">
    <path d="M 89.676975 642.204874 
L 311.388539 642.204874 
L 313.441424 643.23971 
L 793.816479 643.23971 
L 793.816479 643.23971 
" clip-path="url(#p0a4d71d540)" style="fill: none; stroke: #000000; stroke-width: 3; stroke-linecap: square"/>
   </g>
   <g id="line2d_39">
    <path d="M 89.676975 644.274545 
L 793.816479 644.274545 
L 793.816479 644.274545 
" clip-path="url(#p0a4d71d540)" style="fill: none; stroke: #000000; stroke-width: 3; stroke-linecap: square"/>
   </g>
   <g id="line2d_40">
    <path d="M 89.676975 644.274545 
L 793.816479 644.274545 
L 793.816479 644.274545 
" clip-path="url(#p0a4d71d540)" style="fill: none; stroke: #000000; stroke-width: 3; stroke-linecap: square"/>
   </g>
   <g id="line2d_41">
    <path d="M 89.676975 644.274545 
L 793.816479 644.274545 
L 793.816479 644.274545 
" clip-path="url(#p0a4d71d540)" style="fill: none; stroke: #000000; stroke-width: 3; stroke-linecap: square"/>
   </g>
   <g id="patch_3">
    <path d="M 54.47 674.44 
L 54.47 10.8 
" style="fill: none; stroke: #000000; stroke-width: 0.8; stroke-linejoin: miter; stroke-linecap: square"/>
   </g>
   <g id="patch_4">
    <path d="M 829.023455 674.44 
L 829.023455 10.8 
" style="fill: none; stroke: #000000; stroke-width: 0.8; stroke-linejoin: miter; stroke-linecap: square"/>
   </g>
   <g id="patch_5">
    <path d="M 54.47 674.44 
L 829.023455 674.44 
" style="fill: none; stroke: #000000; stroke-width: 0.8; stroke-linejoin: miter; stroke-linecap: square"/>
   </g>
   <g id="patch_6">
    <path d="M 54.47 10.8 
L 829.023455 10.8 
" style="fill: none; stroke: #000000; stroke-width: 0.8; stroke-linejoin: miter; stroke-linecap: square"/>
   </g>
  </g>
  <g id="axes_2">
   <g id="legend_1">
    <g id="patch_7">
     <path d="M 883.021875 426.178125 
L 1067.2 426.178125 
Q 1069.2 426.178125 1069.2 424.178125 
L 1069.2 12.8 
Q 1069.2 10.8 1067.2 10.8 
L 883.021875 10.8 
Q 881.021875 10.8 881.021875 12.8 
L 881.021875 424.178125 
Q 881.021875 426.178125 883.021875 426.178125 
z
" style="fill: #ffffff; opacity: 0.8; stroke: #cccccc; stroke-linejoin: miter"/>
    </g>
    <g id="line2d_42">
     <path d="M 885.021875 18.898437 
L 895.021875 18.898437 
L 905.021875 18.898437 
" style="fill: none; stroke: #1f77b4; stroke-width: 3; stroke-linecap: square"/>
    </g>
    <g id="text_16">
     <!-- scikit-hep/awkward-1.0 -->
     <g transform="translate(913.021875 22.398437)scale(0.1 -0.1)">
      <defs>
       <path id="DejaVuSans-63" d="M 3122 3366 
L 3122 2828 
Q 2878 2963 2633 3030 
Q 2388 3097 2138 3097 
Q 1578 3097 1268 2742 
Q 959 2388 959 1747 
Q 959 1106 1268 751 
Q 1578 397 2138 397 
Q 2388 397 2633 464 
Q 2878 531 3122 666 
L 3122 134 
Q 2881 22 2623 -34 
Q 2366 -91 2075 -91 
Q 1284 -91 818 406 
Q 353 903 353 1747 
Q 353 2603 823 3093 
Q 1294 3584 2113 3584 
Q 2378 3584 2631 3529 
Q 2884 3475 3122 3366 
z
" transform="scale(0.015625)"/>
       <path id="DejaVuSans-69" d="M 603 3500 
L 1178 3500 
L 1178 0 
L 603 0 
L 603 3500 
z
M 603 4863 
L 1178 4863 
L 1178 4134 
L 603 4134 
L 603 4863 
z
" transform="scale(0.015625)"/>
       <path id="DejaVuSans-6b" d="M 581 4863 
L 1159 4863 
L 1159 1991 
L 2875 3500 
L 3609 3500 
L 1753 1863 
L 3688 0 
L 2938 0 
L 1159 1709 
L 1159 0 
L 581 0 
L 581 4863 
z
" transform="scale(0.015625)"/>
       <path id="DejaVuSans-68" d="M 3513 2113 
L 3513 0 
L 2938 0 
L 2938 2094 
Q 2938 2591 2744 2837 
Q 2550 3084 2163 3084 
Q 1697 3084 1428 2787 
Q 1159 2491 1159 1978 
L 1159 0 
L 581 0 
L 581 4863 
L 1159 4863 
L 1159 2956 
Q 1366 3272 1645 3428 
Q 1925 3584 2291 3584 
Q 2894 3584 3203 3211 
Q 3513 2838 3513 2113 
z
" transform="scale(0.015625)"/>
       <path id="DejaVuSans-70" d="M 1159 525 
L 1159 -1331 
L 581 -1331 
L 581 3500 
L 1159 3500 
L 1159 2969 
Q 1341 3281 1617 3432 
Q 1894 3584 2278 3584 
Q 2916 3584 3314 3078 
Q 3713 2572 3713 1747 
Q 3713 922 3314 415 
Q 2916 -91 2278 -91 
Q 1894 -91 1617 61 
Q 1341 213 1159 525 
z
M 3116 1747 
Q 3116 2381 2855 2742 
Q 2594 3103 2138 3103 
Q 1681 3103 1420 2742 
Q 1159 2381 1159 1747 
Q 1159 1113 1420 752 
Q 1681 391 2138 391 
Q 2594 391 2855 752 
Q 3116 1113 3116 1747 
z
" transform="scale(0.015625)"/>
       <path id="DejaVuSans-2f" d="M 1625 4666 
L 2156 4666 
L 531 -594 
L 0 -594 
L 1625 4666 
z
" transform="scale(0.015625)"/>
       <path id="DejaVuSans-77" d="M 269 3500 
L 844 3500 
L 1563 769 
L 2278 3500 
L 2956 3500 
L 3675 769 
L 4391 3500 
L 4966 3500 
L 4050 0 
L 3372 0 
L 2619 2869 
L 1863 0 
L 1184 0 
L 269 3500 
z
" transform="scale(0.015625)"/>
       <path id="DejaVuSans-64" d="M 2906 2969 
L 2906 4863 
L 3481 4863 
L 3481 0 
L 2906 0 
L 2906 525 
Q 2725 213 2448 61 
Q 2172 -91 1784 -91 
Q 1150 -91 751 415 
Q 353 922 353 1747 
Q 353 2572 751 3078 
Q 1150 3584 1784 3584 
Q 2172 3584 2448 3432 
Q 2725 3281 2906 2969 
z
M 947 1747 
Q 947 1113 1208 752 
Q 1469 391 1925 391 
Q 2381 391 2643 752 
Q 2906 1113 2906 1747 
Q 2906 2381 2643 2742 
Q 2381 3103 1925 3103 
Q 1469 3103 1208 2742 
Q 947 2381 947 1747 
z
" transform="scale(0.015625)"/>
       <path id="DejaVuSans-2e" d="M 684 794 
L 1344 794 
L 1344 0 
L 684 0 
L 684 794 
z
" transform="scale(0.015625)"/>
      </defs>
      <use xlink:href="#DejaVuSans-73"/>
      <use xlink:href="#DejaVuSans-63" x="52.099609"/>
      <use xlink:href="#DejaVuSans-69" x="107.080078"/>
      <use xlink:href="#DejaVuSans-6b" x="134.863281"/>
      <use xlink:href="#DejaVuSans-69" x="192.773438"/>
      <use xlink:href="#DejaVuSans-74" x="220.556641"/>
      <use xlink:href="#DejaVuSans-2d" x="259.765625"/>
      <use xlink:href="#DejaVuSans-68" x="295.849609"/>
      <use xlink:href="#DejaVuSans-65" x="359.228516"/>
      <use xlink:href="#DejaVuSans-70" x="420.751953"/>
      <use xlink:href="#DejaVuSans-2f" x="484.228516"/>
      <use xlink:href="#DejaVuSans-61" x="517.919922"/>
      <use xlink:href="#DejaVuSans-77" x="579.199219"/>
      <use xlink:href="#DejaVuSans-6b" x="660.986328"/>
      <use xlink:href="#DejaVuSans-77" x="718.896484"/>
      <use xlink:href="#DejaVuSans-61" x="800.683594"/>
      <use xlink:href="#DejaVuSans-72" x="861.962891"/>
      <use xlink:href="#DejaVuSans-64" x="901.326172"/>
      <use xlink:href="#DejaVuSans-2d" x="964.802734"/>
      <use xlink:href="#DejaVuSans-31" x="1000.886719"/>
      <use xlink:href="#DejaVuSans-2e" x="1064.509766"/>
      <use xlink:href="#DejaVuSans-30" x="1096.296875"/>
     </g>
    </g>
    <g id="line2d_43">
     <path d="M 885.021875 33.576562 
L 895.021875 33.576562 
L 905.021875 33.576562 
" style="fill: none; stroke: #ff7f0e; stroke-width: 3; stroke-linecap: square"/>
    </g>
    <g id="text_17">
     <!-- scikit-hep/uproot3 -->
     <g transform="translate(913.021875 37.076562)scale(0.1 -0.1)">
      <use xlink:href="#DejaVuSans-73"/>
      <use xlink:href="#DejaVuSans-63" x="52.099609"/>
      <use xlink:href="#DejaVuSans-69" x="107.080078"/>
      <use xlink:href="#DejaVuSans-6b" x="134.863281"/>
      <use xlink:href="#DejaVuSans-69" x="192.773438"/>
      <use xlink:href="#DejaVuSans-74" x="220.556641"/>
      <use xlink:href="#DejaVuSans-2d" x="259.765625"/>
      <use xlink:href="#DejaVuSans-68" x="295.849609"/>
      <use xlink:href="#DejaVuSans-65" x="359.228516"/>
      <use xlink:href="#DejaVuSans-70" x="420.751953"/>
      <use xlink:href="#DejaVuSans-2f" x="484.228516"/>
      <use xlink:href="#DejaVuSans-75" x="517.919922"/>
      <use xlink:href="#DejaVuSans-70" x="581.298828"/>
      <use xlink:href="#DejaVuSans-72" x="644.775391"/>
      <use xlink:href="#DejaVuSans-6f" x="683.638672"/>
      <use xlink:href="#DejaVuSans-6f" x="744.820312"/>
      <use xlink:href="#DejaVuSans-74" x="806.001953"/>
      <use xlink:href="#DejaVuSans-33" x="845.210938"/>
     </g>
    </g>
    <g id="line2d_44">
     <path d="M 885.021875 48.254687 
L 895.021875 48.254687 
L 905.021875 48.254687 
" style="fill: none; stroke: #2ca02c; stroke-width: 3; stroke-linecap: square"/>
    </g>
    <g id="text_18">
     <!-- scikit-hep/pyhf -->
     <g transform="translate(913.021875 51.754687)scale(0.1 -0.1)">
      <defs>
       <path id="DejaVuSans-79" d="M 2059 -325 
Q 1816 -950 1584 -1140 
Q 1353 -1331 966 -1331 
L 506 -1331 
L 506 -850 
L 844 -850 
Q 1081 -850 1212 -737 
Q 1344 -625 1503 -206 
L 1606 56 
L 191 3500 
L 800 3500 
L 1894 763 
L 2988 3500 
L 3597 3500 
L 2059 -325 
z
" transform="scale(0.015625)"/>
      </defs>
      <use xlink:href="#DejaVuSans-73"/>
      <use xlink:href="#DejaVuSans-63" x="52.099609"/>
      <use xlink:href="#DejaVuSans-69" x="107.080078"/>
      <use xlink:href="#DejaVuSans-6b" x="134.863281"/>
      <use xlink:href="#DejaVuSans-69" x="192.773438"/>
      <use xlink:href="#DejaVuSans-74" x="220.556641"/>
      <use xlink:href="#DejaVuSans-2d" x="259.765625"/>
      <use xlink:href="#DejaVuSans-68" x="295.849609"/>
      <use xlink:href="#DejaVuSans-65" x="359.228516"/>
      <use xlink:href="#DejaVuSans-70" x="420.751953"/>
      <use xlink:href="#DejaVuSans-2f" x="484.228516"/>
      <use xlink:href="#DejaVuSans-70" x="517.919922"/>
      <use xlink:href="#DejaVuSans-79" x="581.396484"/>
      <use xlink:href="#DejaVuSans-68" x="640.576172"/>
      <use xlink:href="#DejaVuSans-66" x="703.955078"/>
     </g>
    </g>
    <g id="line2d_45">
     <path d="M 885.021875 62.932812 
L 895.021875 62.932812 
L 905.021875 62.932812 
" style="fill: none; stroke: #d62728; stroke-width: 3; stroke-linecap: square"/>
    </g>
    <g id="text_19">
     <!-- scikit-hep/awkward-0.x -->
     <g transform="translate(913.021875 66.432812)scale(0.1 -0.1)">
      <defs>
       <path id="DejaVuSans-78" d="M 3513 3500 
L 2247 1797 
L 3578 0 
L 2900 0 
L 1881 1375 
L 863 0 
L 184 0 
L 1544 1831 
L 300 3500 
L 978 3500 
L 1906 2253 
L 2834 3500 
L 3513 3500 
z
" transform="scale(0.015625)"/>
      </defs>
      <use xlink:href="#DejaVuSans-73"/>
      <use xlink:href="#DejaVuSans-63" x="52.099609"/>
      <use xlink:href="#DejaVuSans-69" x="107.080078"/>
      <use xlink:href="#DejaVuSans-6b" x="134.863281"/>
      <use xlink:href="#DejaVuSans-69" x="192.773438"/>
      <use xlink:href="#DejaVuSans-74" x="220.556641"/>
      <use xlink:href="#DejaVuSans-2d" x="259.765625"/>
      <use xlink:href="#DejaVuSans-68" x="295.849609"/>
      <use xlink:href="#DejaVuSans-65" x="359.228516"/>
      <use xlink:href="#DejaVuSans-70" x="420.751953"/>
      <use xlink:href="#DejaVuSans-2f" x="484.228516"/>
      <use xlink:href="#DejaVuSans-61" x="517.919922"/>
      <use xlink:href="#DejaVuSans-77" x="579.199219"/>
      <use xlink:href="#DejaVuSans-6b" x="660.986328"/>
      <use xlink:href="#DejaVuSans-77" x="718.896484"/>
      <use xlink:href="#DejaVuSans-61" x="800.683594"/>
      <use xlink:href="#DejaVuSans-72" x="861.962891"/>
      <use xlink:href="#DejaVuSans-64" x="901.326172"/>
      <use xlink:href="#DejaVuSans-2d" x="964.802734"/>
      <use xlink:href="#DejaVuSans-30" x="1000.886719"/>
      <use xlink:href="#DejaVuSans-2e" x="1064.509766"/>
      <use xlink:href="#DejaVuSans-78" x="1096.296875"/>
     </g>
    </g>
    <g id="line2d_46">
     <path d="M 885.021875 77.610937 
L 895.021875 77.610937 
L 905.021875 77.610937 
" style="fill: none; stroke: #9467bd; stroke-width: 3; stroke-linecap: square"/>
    </g>
    <g id="text_20">
     <!-- scikit-hep/uproot4 -->
     <g transform="translate(913.021875 81.110937)scale(0.1 -0.1)">
      <use xlink:href="#DejaVuSans-73"/>
      <use xlink:href="#DejaVuSans-63" x="52.099609"/>
      <use xlink:href="#DejaVuSans-69" x="107.080078"/>
      <use xlink:href="#DejaVuSans-6b" x="134.863281"/>
      <use xlink:href="#DejaVuSans-69" x="192.773438"/>
      <use xlink:href="#DejaVuSans-74" x="220.556641"/>
      <use xlink:href="#DejaVuSans-2d" x="259.765625"/>
      <use xlink:href="#DejaVuSans-68" x="295.849609"/>
      <use xlink:href="#DejaVuSans-65" x="359.228516"/>
      <use xlink:href="#DejaVuSans-70" x="420.751953"/>
      <use xlink:href="#DejaVuSans-2f" x="484.228516"/>
      <use xlink:href="#DejaVuSans-75" x="517.919922"/>
      <use xlink:href="#DejaVuSans-70" x="581.298828"/>
      <use xlink:href="#DejaVuSans-72" x="644.775391"/>
      <use xlink:href="#DejaVuSans-6f" x="683.638672"/>
      <use xlink:href="#DejaVuSans-6f" x="744.820312"/>
      <use xlink:href="#DejaVuSans-74" x="806.001953"/>
      <use xlink:href="#DejaVuSans-34" x="845.210938"/>
     </g>
    </g>
    <g id="line2d_47">
     <path d="M 885.021875 92.289062 
L 895.021875 92.289062 
L 905.021875 92.289062 
" style="fill: none; stroke: #8c564b; stroke-width: 3; stroke-linecap: square"/>
    </g>
    <g id="text_21">
     <!-- scikit-hep/mplhep -->
     <g transform="translate(913.021875 95.789062)scale(0.1 -0.1)">
      <defs>
       <path id="DejaVuSans-6c" d="M 603 4863 
L 1178 4863 
L 1178 0 
L 603 0 
L 603 4863 
z
" transform="scale(0.015625)"/>
      </defs>
      <use xlink:href="#DejaVuSans-73"/>
      <use xlink:href="#DejaVuSans-63" x="52.099609"/>
      <use xlink:href="#DejaVuSans-69" x="107.080078"/>
      <use xlink:href="#DejaVuSans-6b" x="134.863281"/>
      <use xlink:href="#DejaVuSans-69" x="192.773438"/>
      <use xlink:href="#DejaVuSans-74" x="220.556641"/>
      <use xlink:href="#DejaVuSans-2d" x="259.765625"/>
      <use xlink:href="#DejaVuSans-68" x="295.849609"/>
      <use xlink:href="#DejaVuSans-65" x="359.228516"/>
      <use xlink:href="#DejaVuSans-70" x="420.751953"/>
      <use xlink:href="#DejaVuSans-2f" x="484.228516"/>
      <use xlink:href="#DejaVuSans-6d" x="517.919922"/>
      <use xlink:href="#DejaVuSans-70" x="615.332031"/>
      <use xlink:href="#DejaVuSans-6c" x="678.808594"/>
      <use xlink:href="#DejaVuSans-68" x="706.591797"/>
      <use xlink:href="#DejaVuSans-65" x="769.970703"/>
      <use xlink:href="#DejaVuSans-70" x="831.494141"/>
     </g>
    </g>
    <g id="line2d_48">
     <path d="M 885.021875 106.967187 
L 895.021875 106.967187 
L 905.021875 106.967187 
" style="fill: none; stroke: #e377c2; stroke-width: 3; stroke-linecap: square"/>
    </g>
    <g id="text_22">
     <!-- scikit-hep/boost-histogram -->
     <g transform="translate(913.021875 110.467187)scale(0.1 -0.1)">
      <defs>
       <path id="DejaVuSans-67" d="M 2906 1791 
Q 2906 2416 2648 2759 
Q 2391 3103 1925 3103 
Q 1463 3103 1205 2759 
Q 947 2416 947 1791 
Q 947 1169 1205 825 
Q 1463 481 1925 481 
Q 2391 481 2648 825 
Q 2906 1169 2906 1791 
z
M 3481 434 
Q 3481 -459 3084 -895 
Q 2688 -1331 1869 -1331 
Q 1566 -1331 1297 -1286 
Q 1028 -1241 775 -1147 
L 775 -588 
Q 1028 -725 1275 -790 
Q 1522 -856 1778 -856 
Q 2344 -856 2625 -561 
Q 2906 -266 2906 331 
L 2906 616 
Q 2728 306 2450 153 
Q 2172 0 1784 0 
Q 1141 0 747 490 
Q 353 981 353 1791 
Q 353 2603 747 3093 
Q 1141 3584 1784 3584 
Q 2172 3584 2450 3431 
Q 2728 3278 2906 2969 
L 2906 3500 
L 3481 3500 
L 3481 434 
z
" transform="scale(0.015625)"/>
      </defs>
      <use xlink:href="#DejaVuSans-73"/>
      <use xlink:href="#DejaVuSans-63" x="52.099609"/>
      <use xlink:href="#DejaVuSans-69" x="107.080078"/>
      <use xlink:href="#DejaVuSans-6b" x="134.863281"/>
      <use xlink:href="#DejaVuSans-69" x="192.773438"/>
      <use xlink:href="#DejaVuSans-74" x="220.556641"/>
      <use xlink:href="#DejaVuSans-2d" x="259.765625"/>
      <use xlink:href="#DejaVuSans-68" x="295.849609"/>
      <use xlink:href="#DejaVuSans-65" x="359.228516"/>
      <use xlink:href="#DejaVuSans-70" x="420.751953"/>
      <use xlink:href="#DejaVuSans-2f" x="484.228516"/>
      <use xlink:href="#DejaVuSans-62" x="517.919922"/>
      <use xlink:href="#DejaVuSans-6f" x="581.396484"/>
      <use xlink:href="#DejaVuSans-6f" x="642.578125"/>
      <use xlink:href="#DejaVuSans-73" x="703.759766"/>
      <use xlink:href="#DejaVuSans-74" x="755.859375"/>
      <use xlink:href="#DejaVuSans-2d" x="795.068359"/>
      <use xlink:href="#DejaVuSans-68" x="831.152344"/>
      <use xlink:href="#DejaVuSans-69" x="894.53125"/>
      <use xlink:href="#DejaVuSans-73" x="922.314453"/>
      <use xlink:href="#DejaVuSans-74" x="974.414062"/>
      <use xlink:href="#DejaVuSans-6f" x="1013.623047"/>
      <use xlink:href="#DejaVuSans-67" x="1074.804688"/>
      <use xlink:href="#DejaVuSans-72" x="1138.28125"/>
      <use xlink:href="#DejaVuSans-61" x="1179.394531"/>
      <use xlink:href="#DejaVuSans-6d" x="1240.673828"/>
     </g>
    </g>
    <g id="line2d_49">
     <path d="M 885.021875 121.645312 
L 895.021875 121.645312 
L 905.021875 121.645312 
" style="fill: none; stroke: #7f7f7f; stroke-width: 3; stroke-linecap: square"/>
    </g>
    <g id="text_23">
     <!-- scikit-hep/particle -->
     <g transform="translate(913.021875 125.145312)scale(0.1 -0.1)">
      <use xlink:href="#DejaVuSans-73"/>
      <use xlink:href="#DejaVuSans-63" x="52.099609"/>
      <use xlink:href="#DejaVuSans-69" x="107.080078"/>
      <use xlink:href="#DejaVuSans-6b" x="134.863281"/>
      <use xlink:href="#DejaVuSans-69" x="192.773438"/>
      <use xlink:href="#DejaVuSans-74" x="220.556641"/>
      <use xlink:href="#DejaVuSans-2d" x="259.765625"/>
      <use xlink:href="#DejaVuSans-68" x="295.849609"/>
      <use xlink:href="#DejaVuSans-65" x="359.228516"/>
      <use xlink:href="#DejaVuSans-70" x="420.751953"/>
      <use xlink:href="#DejaVuSans-2f" x="484.228516"/>
      <use xlink:href="#DejaVuSans-70" x="517.919922"/>
      <use xlink:href="#DejaVuSans-61" x="581.396484"/>
      <use xlink:href="#DejaVuSans-72" x="642.675781"/>
      <use xlink:href="#DejaVuSans-74" x="683.789062"/>
      <use xlink:href="#DejaVuSans-69" x="722.998047"/>
      <use xlink:href="#DejaVuSans-63" x="750.78125"/>
      <use xlink:href="#DejaVuSans-6c" x="805.761719"/>
      <use xlink:href="#DejaVuSans-65" x="833.544922"/>
     </g>
    </g>
    <g id="line2d_50">
     <path d="M 885.021875 136.323437 
L 895.021875 136.323437 
L 905.021875 136.323437 
" style="fill: none; stroke: #bcbd22; stroke-width: 3; stroke-linecap: square"/>
    </g>
    <g id="text_24">
     <!-- GooFit/GooFit -->
     <g transform="translate(913.021875 139.823437)scale(0.1 -0.1)">
      <defs>
       <path id="DejaVuSans-47" d="M 3809 666 
L 3809 1919 
L 2778 1919 
L 2778 2438 
L 4434 2438 
L 4434 434 
Q 4069 175 3628 42 
Q 3188 -91 2688 -91 
Q 1594 -91 976 548 
Q 359 1188 359 2328 
Q 359 3472 976 4111 
Q 1594 4750 2688 4750 
Q 3144 4750 3555 4637 
Q 3966 4525 4313 4306 
L 4313 3634 
Q 3963 3931 3569 4081 
Q 3175 4231 2741 4231 
Q 1884 4231 1454 3753 
Q 1025 3275 1025 2328 
Q 1025 1384 1454 906 
Q 1884 428 2741 428 
Q 3075 428 3337 486 
Q 3600 544 3809 666 
z
" transform="scale(0.015625)"/>
       <path id="DejaVuSans-46" d="M 628 4666 
L 3309 4666 
L 3309 4134 
L 1259 4134 
L 1259 2759 
L 3109 2759 
L 3109 2228 
L 1259 2228 
L 1259 0 
L 628 0 
L 628 4666 
z
" transform="scale(0.015625)"/>
      </defs>
      <use xlink:href="#DejaVuSans-47"/>
      <use xlink:href="#DejaVuSans-6f" x="77.490234"/>
      <use xlink:href="#DejaVuSans-6f" x="138.671875"/>
      <use xlink:href="#DejaVuSans-46" x="199.853516"/>
      <use xlink:href="#DejaVuSans-69" x="250.123047"/>
      <use xlink:href="#DejaVuSans-74" x="277.90625"/>
      <use xlink:href="#DejaVuSans-2f" x="317.115234"/>
      <use xlink:href="#DejaVuSans-47" x="350.806641"/>
      <use xlink:href="#DejaVuSans-6f" x="428.296875"/>
      <use xlink:href="#DejaVuSans-6f" x="489.478516"/>
      <use xlink:href="#DejaVuSans-46" x="550.660156"/>
      <use xlink:href="#DejaVuSans-69" x="600.929688"/>
      <use xlink:href="#DejaVuSans-74" x="628.712891"/>
     </g>
    </g>
    <g id="line2d_51">
     <path d="M 885.021875 151.001562 
L 895.021875 151.001562 
L 905.021875 151.001562 
" style="fill: none; stroke: #17becf; stroke-width: 3; stroke-linecap: square"/>
    </g>
    <g id="text_25">
     <!-- reanahub/reana -->
     <g transform="translate(913.021875 154.501562)scale(0.1 -0.1)">
      <defs>
       <path id="DejaVuSans-6e" d="M 3513 2113 
L 3513 0 
L 2938 0 
L 2938 2094 
Q 2938 2591 2744 2837 
Q 2550 3084 2163 3084 
Q 1697 3084 1428 2787 
Q 1159 2491 1159 1978 
L 1159 0 
L 581 0 
L 581 3500 
L 1159 3500 
L 1159 2956 
Q 1366 3272 1645 3428 
Q 1925 3584 2291 3584 
Q 2894 3584 3203 3211 
Q 3513 2838 3513 2113 
z
" transform="scale(0.015625)"/>
      </defs>
      <use xlink:href="#DejaVuSans-72"/>
      <use xlink:href="#DejaVuSans-65" x="38.863281"/>
      <use xlink:href="#DejaVuSans-61" x="100.386719"/>
      <use xlink:href="#DejaVuSans-6e" x="161.666016"/>
      <use xlink:href="#DejaVuSans-61" x="225.044922"/>
      <use xlink:href="#DejaVuSans-68" x="286.324219"/>
      <use xlink:href="#DejaVuSans-75" x="349.703125"/>
      <use xlink:href="#DejaVuSans-62" x="413.082031"/>
      <use xlink:href="#DejaVuSans-2f" x="476.558594"/>
      <use xlink:href="#DejaVuSans-72" x="510.25"/>
      <use xlink:href="#DejaVuSans-65" x="549.113281"/>
      <use xlink:href="#DejaVuSans-61" x="610.636719"/>
      <use xlink:href="#DejaVuSans-6e" x="671.916016"/>
      <use xlink:href="#DejaVuSans-61" x="735.294922"/>
     </g>
    </g>
    <g id="line2d_52">
     <path d="M 885.021875 165.679687 
L 895.021875 165.679687 
L 905.021875 165.679687 
" style="fill: none; stroke: #1f77b4; stroke-width: 3; stroke-linecap: square"/>
    </g>
    <g id="text_26">
     <!-- scikit-hep/hist -->
     <g transform="translate(913.021875 169.179687)scale(0.1 -0.1)">
      <use xlink:href="#DejaVuSans-73"/>
      <use xlink:href="#DejaVuSans-63" x="52.099609"/>
      <use xlink:href="#DejaVuSans-69" x="107.080078"/>
      <use xlink:href="#DejaVuSans-6b" x="134.863281"/>
      <use xlink:href="#DejaVuSans-69" x="192.773438"/>
      <use xlink:href="#DejaVuSans-74" x="220.556641"/>
      <use xlink:href="#DejaVuSans-2d" x="259.765625"/>
      <use xlink:href="#DejaVuSans-68" x="295.849609"/>
      <use xlink:href="#DejaVuSans-65" x="359.228516"/>
      <use xlink:href="#DejaVuSans-70" x="420.751953"/>
      <use xlink:href="#DejaVuSans-2f" x="484.228516"/>
      <use xlink:href="#DejaVuSans-68" x="517.919922"/>
      <use xlink:href="#DejaVuSans-69" x="581.298828"/>
      <use xlink:href="#DejaVuSans-73" x="609.082031"/>
      <use xlink:href="#DejaVuSans-74" x="661.181641"/>
     </g>
    </g>
    <g id="line2d_53">
     <path d="M 885.021875 180.357812 
L 895.021875 180.357812 
L 905.021875 180.357812 
" style="fill: none; stroke: #ff7f0e; stroke-width: 3; stroke-linecap: square"/>
    </g>
    <g id="text_27">
     <!-- diana-hep/madminer -->
     <g transform="translate(913.021875 183.857812)scale(0.1 -0.1)">
      <use xlink:href="#DejaVuSans-64"/>
      <use xlink:href="#DejaVuSans-69" x="63.476562"/>
      <use xlink:href="#DejaVuSans-61" x="91.259766"/>
      <use xlink:href="#DejaVuSans-6e" x="152.539062"/>
      <use xlink:href="#DejaVuSans-61" x="215.917969"/>
      <use xlink:href="#DejaVuSans-2d" x="277.197266"/>
      <use xlink:href="#DejaVuSans-68" x="313.28125"/>
      <use xlink:href="#DejaVuSans-65" x="376.660156"/>
      <use xlink:href="#DejaVuSans-70" x="438.183594"/>
      <use xlink:href="#DejaVuSans-2f" x="501.660156"/>
      <use xlink:href="#DejaVuSans-6d" x="535.351562"/>
      <use xlink:href="#DejaVuSans-61" x="632.763672"/>
      <use xlink:href="#DejaVuSans-64" x="694.042969"/>
      <use xlink:href="#DejaVuSans-6d" x="757.519531"/>
      <use xlink:href="#DejaVuSans-69" x="854.931641"/>
      <use xlink:href="#DejaVuSans-6e" x="882.714844"/>
      <use xlink:href="#DejaVuSans-65" x="946.09375"/>
      <use xlink:href="#DejaVuSans-72" x="1007.617188"/>
     </g>
    </g>
    <g id="line2d_54">
     <path d="M 885.021875 195.035937 
L 895.021875 195.035937 
L 905.021875 195.035937 
" style="fill: none; stroke: #2ca02c; stroke-width: 3; stroke-linecap: square"/>
    </g>
    <g id="text_28">
     <!-- scikit-hep/cookie -->
     <g transform="translate(913.021875 198.535937)scale(0.1 -0.1)">
      <use xlink:href="#DejaVuSans-73"/>
      <use xlink:href="#DejaVuSans-63" x="52.099609"/>
      <use xlink:href="#DejaVuSans-69" x="107.080078"/>
      <use xlink:href="#DejaVuSans-6b" x="134.863281"/>
      <use xlink:href="#DejaVuSans-69" x="192.773438"/>
      <use xlink:href="#DejaVuSans-74" x="220.556641"/>
      <use xlink:href="#DejaVuSans-2d" x="259.765625"/>
      <use xlink:href="#DejaVuSans-68" x="295.849609"/>
      <use xlink:href="#DejaVuSans-65" x="359.228516"/>
      <use xlink:href="#DejaVuSans-70" x="420.751953"/>
      <use xlink:href="#DejaVuSans-2f" x="484.228516"/>
      <use xlink:href="#DejaVuSans-63" x="517.919922"/>
      <use xlink:href="#DejaVuSans-6f" x="572.900391"/>
      <use xlink:href="#DejaVuSans-6f" x="634.082031"/>
      <use xlink:href="#DejaVuSans-6b" x="695.263672"/>
      <use xlink:href="#DejaVuSans-69" x="753.173828"/>
      <use xlink:href="#DejaVuSans-65" x="780.957031"/>
     </g>
    </g>
    <g id="line2d_55">
     <path d="M 885.021875 209.714062 
L 895.021875 209.714062 
L 905.021875 209.714062 
" style="fill: none; stroke: #d62728; stroke-width: 3; stroke-linecap: square"/>
    </g>
    <g id="text_29">
     <!-- scikit-hep/vector -->
     <g transform="translate(913.021875 213.214062)scale(0.1 -0.1)">
      <defs>
       <path id="DejaVuSans-76" d="M 191 3500 
L 800 3500 
L 1894 563 
L 2988 3500 
L 3597 3500 
L 2284 0 
L 1503 0 
L 191 3500 
z
" transform="scale(0.015625)"/>
      </defs>
      <use xlink:href="#DejaVuSans-73"/>
      <use xlink:href="#DejaVuSans-63" x="52.099609"/>
      <use xlink:href="#DejaVuSans-69" x="107.080078"/>
      <use xlink:href="#DejaVuSans-6b" x="134.863281"/>
      <use xlink:href="#DejaVuSans-69" x="192.773438"/>
      <use xlink:href="#DejaVuSans-74" x="220.556641"/>
      <use xlink:href="#DejaVuSans-2d" x="259.765625"/>
      <use xlink:href="#DejaVuSans-68" x="295.849609"/>
      <use xlink:href="#DejaVuSans-65" x="359.228516"/>
      <use xlink:href="#DejaVuSans-70" x="420.751953"/>
      <use xlink:href="#DejaVuSans-2f" x="484.228516"/>
      <use xlink:href="#DejaVuSans-76" x="517.919922"/>
      <use xlink:href="#DejaVuSans-65" x="577.099609"/>
      <use xlink:href="#DejaVuSans-63" x="638.623047"/>
      <use xlink:href="#DejaVuSans-74" x="693.603516"/>
      <use xlink:href="#DejaVuSans-6f" x="732.8125"/>
      <use xlink:href="#DejaVuSans-72" x="793.994141"/>
     </g>
    </g>
    <g id="line2d_56">
     <path d="M 885.021875 224.392187 
L 895.021875 224.392187 
L 905.021875 224.392187 
" style="fill: none; stroke: #9467bd; stroke-width: 3; stroke-linecap: square"/>
    </g>
    <g id="text_30">
     <!-- scikit-hep/decaylanguage -->
     <g transform="translate(913.021875 227.892187)scale(0.1 -0.1)">
      <use xlink:href="#DejaVuSans-73"/>
      <use xlink:href="#DejaVuSans-63" x="52.099609"/>
      <use xlink:href="#DejaVuSans-69" x="107.080078"/>
      <use xlink:href="#DejaVuSans-6b" x="134.863281"/>
      <use xlink:href="#DejaVuSans-69" x="192.773438"/>
      <use xlink:href="#DejaVuSans-74" x="220.556641"/>
      <use xlink:href="#DejaVuSans-2d" x="259.765625"/>
      <use xlink:href="#DejaVuSans-68" x="295.849609"/>
      <use xlink:href="#DejaVuSans-65" x="359.228516"/>
      <use xlink:href="#DejaVuSans-70" x="420.751953"/>
      <use xlink:href="#DejaVuSans-2f" x="484.228516"/>
      <use xlink:href="#DejaVuSans-64" x="517.919922"/>
      <use xlink:href="#DejaVuSans-65" x="581.396484"/>
      <use xlink:href="#DejaVuSans-63" x="642.919922"/>
      <use xlink:href="#DejaVuSans-61" x="697.900391"/>
      <use xlink:href="#DejaVuSans-79" x="759.179688"/>
      <use xlink:href="#DejaVuSans-6c" x="818.359375"/>
      <use xlink:href="#DejaVuSans-61" x="846.142578"/>
      <use xlink:href="#DejaVuSans-6e" x="907.421875"/>
      <use xlink:href="#DejaVuSans-67" x="970.800781"/>
      <use xlink:href="#DejaVuSans-75" x="1034.277344"/>
      <use xlink:href="#DejaVuSans-61" x="1097.65625"/>
      <use xlink:href="#DejaVuSans-67" x="1158.935547"/>
      <use xlink:href="#DejaVuSans-65" x="1222.412109"/>
     </g>
    </g>
    <g id="line2d_57">
     <path d="M 885.021875 239.070312 
L 895.021875 239.070312 
L 905.021875 239.070312 
" style="fill: none; stroke: #000000; stroke-width: 3; stroke-linecap: square"/>
    </g>
    <g id="text_31">
     <!-- diana-hep/excursion -->
     <g transform="translate(913.021875 242.570312)scale(0.1 -0.1)">
      <use xlink:href="#DejaVuSans-64"/>
      <use xlink:href="#DejaVuSans-69" x="63.476562"/>
      <use xlink:href="#DejaVuSans-61" x="91.259766"/>
      <use xlink:href="#DejaVuSans-6e" x="152.539062"/>
      <use xlink:href="#DejaVuSans-61" x="215.917969"/>
      <use xlink:href="#DejaVuSans-2d" x="277.197266"/>
      <use xlink:href="#DejaVuSans-68" x="313.28125"/>
      <use xlink:href="#DejaVuSans-65" x="376.660156"/>
      <use xlink:href="#DejaVuSans-70" x="438.183594"/>
      <use xlink:href="#DejaVuSans-2f" x="501.660156"/>
      <use xlink:href="#DejaVuSans-65" x="535.351562"/>
      <use xlink:href="#DejaVuSans-78" x="595.125"/>
      <use xlink:href="#DejaVuSans-63" x="652.554688"/>
      <use xlink:href="#DejaVuSans-75" x="707.535156"/>
      <use xlink:href="#DejaVuSans-72" x="770.914062"/>
      <use xlink:href="#DejaVuSans-73" x="812.027344"/>
      <use xlink:href="#DejaVuSans-69" x="864.126953"/>
      <use xlink:href="#DejaVuSans-6f" x="891.910156"/>
      <use xlink:href="#DejaVuSans-6e" x="953.091797"/>
     </g>
    </g>
    <g id="line2d_58">
     <path d="M 885.021875 253.748437 
L 895.021875 253.748437 
L 905.021875 253.748437 
" style="fill: none; stroke: #000000; stroke-width: 3; stroke-linecap: square"/>
    </g>
    <g id="text_32">
     <!-- scikit-hep/cabinetry -->
     <g transform="translate(913.021875 257.248437)scale(0.1 -0.1)">
      <use xlink:href="#DejaVuSans-73"/>
      <use xlink:href="#DejaVuSans-63" x="52.099609"/>
      <use xlink:href="#DejaVuSans-69" x="107.080078"/>
      <use xlink:href="#DejaVuSans-6b" x="134.863281"/>
      <use xlink:href="#DejaVuSans-69" x="192.773438"/>
      <use xlink:href="#DejaVuSans-74" x="220.556641"/>
      <use xlink:href="#DejaVuSans-2d" x="259.765625"/>
      <use xlink:href="#DejaVuSans-68" x="295.849609"/>
      <use xlink:href="#DejaVuSans-65" x="359.228516"/>
      <use xlink:href="#DejaVuSans-70" x="420.751953"/>
      <use xlink:href="#DejaVuSans-2f" x="484.228516"/>
      <use xlink:href="#DejaVuSans-63" x="517.919922"/>
      <use xlink:href="#DejaVuSans-61" x="572.900391"/>
      <use xlink:href="#DejaVuSans-62" x="634.179688"/>
      <use xlink:href="#DejaVuSans-69" x="697.65625"/>
      <use xlink:href="#DejaVuSans-6e" x="725.439453"/>
      <use xlink:href="#DejaVuSans-65" x="788.818359"/>
      <use xlink:href="#DejaVuSans-74" x="850.341797"/>
      <use xlink:href="#DejaVuSans-72" x="889.550781"/>
      <use xlink:href="#DejaVuSans-79" x="930.664062"/>
     </g>
    </g>
    <g id="line2d_59">
     <path d="M 885.021875 268.426562 
L 895.021875 268.426562 
L 905.021875 268.426562 
" style="fill: none; stroke: #000000; stroke-width: 3; stroke-linecap: square"/>
    </g>
    <g id="text_33">
     <!-- iris-hep/adl-benchmarks-index -->
     <g transform="translate(913.021875 271.926562)scale(0.1 -0.1)">
      <use xlink:href="#DejaVuSans-69"/>
      <use xlink:href="#DejaVuSans-72" x="27.783203"/>
      <use xlink:href="#DejaVuSans-69" x="68.896484"/>
      <use xlink:href="#DejaVuSans-73" x="96.679688"/>
      <use xlink:href="#DejaVuSans-2d" x="148.779297"/>
      <use xlink:href="#DejaVuSans-68" x="184.863281"/>
      <use xlink:href="#DejaVuSans-65" x="248.242188"/>
      <use xlink:href="#DejaVuSans-70" x="309.765625"/>
      <use xlink:href="#DejaVuSans-2f" x="373.242188"/>
      <use xlink:href="#DejaVuSans-61" x="406.933594"/>
      <use xlink:href="#DejaVuSans-64" x="468.212891"/>
      <use xlink:href="#DejaVuSans-6c" x="531.689453"/>
      <use xlink:href="#DejaVuSans-2d" x="559.472656"/>
      <use xlink:href="#DejaVuSans-62" x="595.556641"/>
      <use xlink:href="#DejaVuSans-65" x="659.033203"/>
      <use xlink:href="#DejaVuSans-6e" x="720.556641"/>
      <use xlink:href="#DejaVuSans-63" x="783.935547"/>
      <use xlink:href="#DejaVuSans-68" x="838.916016"/>
      <use xlink:href="#DejaVuSans-6d" x="902.294922"/>
      <use xlink:href="#DejaVuSans-61" x="999.707031"/>
      <use xlink:href="#DejaVuSans-72" x="1060.986328"/>
      <use xlink:href="#DejaVuSans-6b" x="1102.099609"/>
      <use xlink:href="#DejaVuSans-73" x="1160.009766"/>
      <use xlink:href="#DejaVuSans-2d" x="1212.109375"/>
      <use xlink:href="#DejaVuSans-69" x="1248.193359"/>
      <use xlink:href="#DejaVuSans-6e" x="1275.976562"/>
      <use xlink:href="#DejaVuSans-64" x="1339.355469"/>
      <use xlink:href="#DejaVuSans-65" x="1402.832031"/>
      <use xlink:href="#DejaVuSans-78" x="1462.605469"/>
     </g>
    </g>
    <g id="line2d_60">
     <path d="M 885.021875 283.104687 
L 895.021875 283.104687 
L 905.021875 283.104687 
" style="fill: none; stroke: #000000; stroke-width: 3; stroke-linecap: square"/>
    </g>
    <g id="text_34">
     <!-- scikit-hep/uhi -->
     <g transform="translate(913.021875 286.604687)scale(0.1 -0.1)">
      <use xlink:href="#DejaVuSans-73"/>
      <use xlink:href="#DejaVuSans-63" x="52.099609"/>
      <use xlink:href="#DejaVuSans-69" x="107.080078"/>
      <use xlink:href="#DejaVuSans-6b" x="134.863281"/>
      <use xlink:href="#DejaVuSans-69" x="192.773438"/>
      <use xlink:href="#DejaVuSans-74" x="220.556641"/>
      <use xlink:href="#DejaVuSans-2d" x="259.765625"/>
      <use xlink:href="#DejaVuSans-68" x="295.849609"/>
      <use xlink:href="#DejaVuSans-65" x="359.228516"/>
      <use xlink:href="#DejaVuSans-70" x="420.751953"/>
      <use xlink:href="#DejaVuSans-2f" x="484.228516"/>
      <use xlink:href="#DejaVuSans-75" x="517.919922"/>
      <use xlink:href="#DejaVuSans-68" x="581.298828"/>
      <use xlink:href="#DejaVuSans-69" x="644.677734"/>
     </g>
    </g>
    <g id="line2d_61">
     <path d="M 885.021875 297.782812 
L 895.021875 297.782812 
L 905.021875 297.782812 
" style="fill: none; stroke: #000000; stroke-width: 3; stroke-linecap: square"/>
    </g>
    <g id="text_35">
     <!-- scikit-hep/fastjet -->
     <g transform="translate(913.021875 301.282812)scale(0.1 -0.1)">
      <defs>
       <path id="DejaVuSans-6a" d="M 603 3500 
L 1178 3500 
L 1178 -63 
Q 1178 -731 923 -1031 
Q 669 -1331 103 -1331 
L -116 -1331 
L -116 -844 
L 38 -844 
Q 366 -844 484 -692 
Q 603 -541 603 -63 
L 603 3500 
z
M 603 4863 
L 1178 4863 
L 1178 4134 
L 603 4134 
L 603 4863 
z
" transform="scale(0.015625)"/>
      </defs>
      <use xlink:href="#DejaVuSans-73"/>
      <use xlink:href="#DejaVuSans-63" x="52.099609"/>
      <use xlink:href="#DejaVuSans-69" x="107.080078"/>
      <use xlink:href="#DejaVuSans-6b" x="134.863281"/>
      <use xlink:href="#DejaVuSans-69" x="192.773438"/>
      <use xlink:href="#DejaVuSans-74" x="220.556641"/>
      <use xlink:href="#DejaVuSans-2d" x="259.765625"/>
      <use xlink:href="#DejaVuSans-68" x="295.849609"/>
      <use xlink:href="#DejaVuSans-65" x="359.228516"/>
      <use xlink:href="#DejaVuSans-70" x="420.751953"/>
      <use xlink:href="#DejaVuSans-2f" x="484.228516"/>
      <use xlink:href="#DejaVuSans-66" x="517.919922"/>
      <use xlink:href="#DejaVuSans-61" x="553.125"/>
      <use xlink:href="#DejaVuSans-73" x="614.404297"/>
      <use xlink:href="#DejaVuSans-74" x="666.503906"/>
      <use xlink:href="#DejaVuSans-6a" x="705.712891"/>
      <use xlink:href="#DejaVuSans-65" x="733.496094"/>
      <use xlink:href="#DejaVuSans-74" x="795.019531"/>
     </g>
    </g>
    <g id="line2d_62">
     <path d="M 885.021875 312.460937 
L 895.021875 312.460937 
L 905.021875 312.460937 
" style="fill: none; stroke: #000000; stroke-width: 3; stroke-linecap: square"/>
    </g>
    <g id="text_36">
     <!-- iris-hep/func_adl -->
     <g transform="translate(913.021875 315.960937)scale(0.1 -0.1)">
      <defs>
       <path id="DejaVuSans-5f" d="M 3263 -1063 
L 3263 -1509 
L -63 -1509 
L -63 -1063 
L 3263 -1063 
z
" transform="scale(0.015625)"/>
      </defs>
      <use xlink:href="#DejaVuSans-69"/>
      <use xlink:href="#DejaVuSans-72" x="27.783203"/>
      <use xlink:href="#DejaVuSans-69" x="68.896484"/>
      <use xlink:href="#DejaVuSans-73" x="96.679688"/>
      <use xlink:href="#DejaVuSans-2d" x="148.779297"/>
      <use xlink:href="#DejaVuSans-68" x="184.863281"/>
      <use xlink:href="#DejaVuSans-65" x="248.242188"/>
      <use xlink:href="#DejaVuSans-70" x="309.765625"/>
      <use xlink:href="#DejaVuSans-2f" x="373.242188"/>
      <use xlink:href="#DejaVuSans-66" x="406.933594"/>
      <use xlink:href="#DejaVuSans-75" x="442.138672"/>
      <use xlink:href="#DejaVuSans-6e" x="505.517578"/>
      <use xlink:href="#DejaVuSans-63" x="568.896484"/>
      <use xlink:href="#DejaVuSans-5f" x="623.876953"/>
      <use xlink:href="#DejaVuSans-61" x="673.876953"/>
      <use xlink:href="#DejaVuSans-64" x="735.15625"/>
      <use xlink:href="#DejaVuSans-6c" x="798.632812"/>
     </g>
    </g>
    <g id="line2d_63">
     <path d="M 885.021875 327.417187 
L 895.021875 327.417187 
L 905.021875 327.417187 
" style="fill: none; stroke: #000000; stroke-width: 3; stroke-linecap: square"/>
    </g>
    <g id="text_37">
     <!-- scailfin/madminer-workflow -->
     <g transform="translate(913.021875 330.917187)scale(0.1 -0.1)">
      <use xlink:href="#DejaVuSans-73"/>
      <use xlink:href="#DejaVuSans-63" x="52.099609"/>
      <use xlink:href="#DejaVuSans-61" x="107.080078"/>
      <use xlink:href="#DejaVuSans-69" x="168.359375"/>
      <use xlink:href="#DejaVuSans-6c" x="196.142578"/>
      <use xlink:href="#DejaVuSans-66" x="223.925781"/>
      <use xlink:href="#DejaVuSans-69" x="259.130859"/>
      <use xlink:href="#DejaVuSans-6e" x="286.914062"/>
      <use xlink:href="#DejaVuSans-2f" x="350.292969"/>
      <use xlink:href="#DejaVuSans-6d" x="383.984375"/>
      <use xlink:href="#DejaVuSans-61" x="481.396484"/>
      <use xlink:href="#DejaVuSans-64" x="542.675781"/>
      <use xlink:href="#DejaVuSans-6d" x="606.152344"/>
      <use xlink:href="#DejaVuSans-69" x="703.564453"/>
      <use xlink:href="#DejaVuSans-6e" x="731.347656"/>
      <use xlink:href="#DejaVuSans-65" x="794.726562"/>
      <use xlink:href="#DejaVuSans-72" x="856.25"/>
      <use xlink:href="#DejaVuSans-2d" x="890.988281"/>
      <use xlink:href="#DejaVuSans-77" x="927.072266"/>
      <use xlink:href="#DejaVuSans-6f" x="1008.859375"/>
      <use xlink:href="#DejaVuSans-72" x="1070.041016"/>
      <use xlink:href="#DejaVuSans-6b" x="1111.154297"/>
      <use xlink:href="#DejaVuSans-66" x="1169.064453"/>
      <use xlink:href="#DejaVuSans-6c" x="1204.269531"/>
      <use xlink:href="#DejaVuSans-6f" x="1232.052734"/>
      <use xlink:href="#DejaVuSans-77" x="1293.234375"/>
     </g>
    </g>
    <g id="line2d_64">
     <path d="M 885.021875 342.095312 
L 895.021875 342.095312 
L 905.021875 342.095312 
" style="fill: none; stroke: #000000; stroke-width: 3; stroke-linecap: square"/>
    </g>
    <g id="text_38">
     <!-- iris-hep/qastle -->
     <g transform="translate(913.021875 345.595312)scale(0.1 -0.1)">
      <defs>
       <path id="DejaVuSans-71" d="M 947 1747 
Q 947 1113 1208 752 
Q 1469 391 1925 391 
Q 2381 391 2643 752 
Q 2906 1113 2906 1747 
Q 2906 2381 2643 2742 
Q 2381 3103 1925 3103 
Q 1469 3103 1208 2742 
Q 947 2381 947 1747 
z
M 2906 525 
Q 2725 213 2448 61 
Q 2172 -91 1784 -91 
Q 1150 -91 751 415 
Q 353 922 353 1747 
Q 353 2572 751 3078 
Q 1150 3584 1784 3584 
Q 2172 3584 2448 3432 
Q 2725 3281 2906 2969 
L 2906 3500 
L 3481 3500 
L 3481 -1331 
L 2906 -1331 
L 2906 525 
z
" transform="scale(0.015625)"/>
      </defs>
      <use xlink:href="#DejaVuSans-69"/>
      <use xlink:href="#DejaVuSans-72" x="27.783203"/>
      <use xlink:href="#DejaVuSans-69" x="68.896484"/>
      <use xlink:href="#DejaVuSans-73" x="96.679688"/>
      <use xlink:href="#DejaVuSans-2d" x="148.779297"/>
      <use xlink:href="#DejaVuSans-68" x="184.863281"/>
      <use xlink:href="#DejaVuSans-65" x="248.242188"/>
      <use xlink:href="#DejaVuSans-70" x="309.765625"/>
      <use xlink:href="#DejaVuSans-2f" x="373.242188"/>
      <use xlink:href="#DejaVuSans-71" x="406.933594"/>
      <use xlink:href="#DejaVuSans-61" x="470.410156"/>
      <use xlink:href="#DejaVuSans-73" x="531.689453"/>
      <use xlink:href="#DejaVuSans-74" x="583.789062"/>
      <use xlink:href="#DejaVuSans-6c" x="622.998047"/>
      <use xlink:href="#DejaVuSans-65" x="650.78125"/>
     </g>
    </g>
    <g id="line2d_65">
     <path d="M 885.021875 356.773437 
L 895.021875 356.773437 
L 905.021875 356.773437 
" style="fill: none; stroke: #000000; stroke-width: 3; stroke-linecap: square"/>
    </g>
    <g id="text_39">
     <!-- gordonwatts/hep_tables -->
     <g transform="translate(913.021875 360.273437)scale(0.1 -0.1)">
      <use xlink:href="#DejaVuSans-67"/>
      <use xlink:href="#DejaVuSans-6f" x="63.476562"/>
      <use xlink:href="#DejaVuSans-72" x="124.658203"/>
      <use xlink:href="#DejaVuSans-64" x="164.021484"/>
      <use xlink:href="#DejaVuSans-6f" x="227.498047"/>
      <use xlink:href="#DejaVuSans-6e" x="288.679688"/>
      <use xlink:href="#DejaVuSans-77" x="352.058594"/>
      <use xlink:href="#DejaVuSans-61" x="433.845703"/>
      <use xlink:href="#DejaVuSans-74" x="495.125"/>
      <use xlink:href="#DejaVuSans-74" x="534.333984"/>
      <use xlink:href="#DejaVuSans-73" x="573.542969"/>
      <use xlink:href="#DejaVuSans-2f" x="625.642578"/>
      <use xlink:href="#DejaVuSans-68" x="659.333984"/>
      <use xlink:href="#DejaVuSans-65" x="722.712891"/>
      <use xlink:href="#DejaVuSans-70" x="784.236328"/>
      <use xlink:href="#DejaVuSans-5f" x="847.712891"/>
      <use xlink:href="#DejaVuSans-74" x="897.712891"/>
      <use xlink:href="#DejaVuSans-61" x="936.921875"/>
      <use xlink:href="#DejaVuSans-62" x="998.201172"/>
      <use xlink:href="#DejaVuSans-6c" x="1061.677734"/>
      <use xlink:href="#DejaVuSans-65" x="1089.460938"/>
      <use xlink:href="#DejaVuSans-73" x="1150.984375"/>
     </g>
    </g>
    <g id="line2d_66">
     <path d="M 885.021875 371.729687 
L 895.021875 371.729687 
L 905.021875 371.729687 
" style="fill: none; stroke: #000000; stroke-width: 3; stroke-linecap: square"/>
    </g>
    <g id="text_40">
     <!-- GooFit/AmpGen -->
     <g transform="translate(913.021875 375.229687)scale(0.1 -0.1)">
      <defs>
       <path id="DejaVuSans-41" d="M 2188 4044 
L 1331 1722 
L 3047 1722 
L 2188 4044 
z
M 1831 4666 
L 2547 4666 
L 4325 0 
L 3669 0 
L 3244 1197 
L 1141 1197 
L 716 0 
L 50 0 
L 1831 4666 
z
" transform="scale(0.015625)"/>
      </defs>
      <use xlink:href="#DejaVuSans-47"/>
      <use xlink:href="#DejaVuSans-6f" x="77.490234"/>
      <use xlink:href="#DejaVuSans-6f" x="138.671875"/>
      <use xlink:href="#DejaVuSans-46" x="199.853516"/>
      <use xlink:href="#DejaVuSans-69" x="250.123047"/>
      <use xlink:href="#DejaVuSans-74" x="277.90625"/>
      <use xlink:href="#DejaVuSans-2f" x="317.115234"/>
      <use xlink:href="#DejaVuSans-41" x="350.806641"/>
      <use xlink:href="#DejaVuSans-6d" x="419.214844"/>
      <use xlink:href="#DejaVuSans-70" x="516.626953"/>
      <use xlink:href="#DejaVuSans-47" x="580.103516"/>
      <use xlink:href="#DejaVuSans-65" x="657.59375"/>
      <use xlink:href="#DejaVuSans-6e" x="719.117188"/>
     </g>
    </g>
    <g id="line2d_67">
     <path d="M 885.021875 386.407812 
L 895.021875 386.407812 
L 905.021875 386.407812 
" style="fill: none; stroke: #000000; stroke-width: 3; stroke-linecap: square"/>
    </g>
    <g id="text_41">
     <!-- iris-hep/func_adl_xAOD -->
     <g transform="translate(913.021875 389.907812)scale(0.1 -0.1)">
      <defs>
       <path id="DejaVuSans-4f" d="M 2522 4238 
Q 1834 4238 1429 3725 
Q 1025 3213 1025 2328 
Q 1025 1447 1429 934 
Q 1834 422 2522 422 
Q 3209 422 3611 934 
Q 4013 1447 4013 2328 
Q 4013 3213 3611 3725 
Q 3209 4238 2522 4238 
z
M 2522 4750 
Q 3503 4750 4090 4092 
Q 4678 3434 4678 2328 
Q 4678 1225 4090 567 
Q 3503 -91 2522 -91 
Q 1538 -91 948 565 
Q 359 1222 359 2328 
Q 359 3434 948 4092 
Q 1538 4750 2522 4750 
z
" transform="scale(0.015625)"/>
      </defs>
      <use xlink:href="#DejaVuSans-69"/>
      <use xlink:href="#DejaVuSans-72" x="27.783203"/>
      <use xlink:href="#DejaVuSans-69" x="68.896484"/>
      <use xlink:href="#DejaVuSans-73" x="96.679688"/>
      <use xlink:href="#DejaVuSans-2d" x="148.779297"/>
      <use xlink:href="#DejaVuSans-68" x="184.863281"/>
      <use xlink:href="#DejaVuSans-65" x="248.242188"/>
      <use xlink:href="#DejaVuSans-70" x="309.765625"/>
      <use xlink:href="#DejaVuSans-2f" x="373.242188"/>
      <use xlink:href="#DejaVuSans-66" x="406.933594"/>
      <use xlink:href="#DejaVuSans-75" x="442.138672"/>
      <use xlink:href="#DejaVuSans-6e" x="505.517578"/>
      <use xlink:href="#DejaVuSans-63" x="568.896484"/>
      <use xlink:href="#DejaVuSans-5f" x="623.876953"/>
      <use xlink:href="#DejaVuSans-61" x="673.876953"/>
      <use xlink:href="#DejaVuSans-64" x="735.15625"/>
      <use xlink:href="#DejaVuSans-6c" x="798.632812"/>
      <use xlink:href="#DejaVuSans-5f" x="826.416016"/>
      <use xlink:href="#DejaVuSans-78" x="876.416016"/>
      <use xlink:href="#DejaVuSans-41" x="935.595703"/>
      <use xlink:href="#DejaVuSans-4f" x="1002.253906"/>
      <use xlink:href="#DejaVuSans-44" x="1080.964844"/>
     </g>
    </g>
    <g id="line2d_68">
     <path d="M 885.021875 401.364062 
L 895.021875 401.364062 
L 905.021875 401.364062 
" style="fill: none; stroke: #000000; stroke-width: 3; stroke-linecap: square"/>
    </g>
    <g id="text_42">
     <!-- iris-hep/func_adl_uproot -->
     <g transform="translate(913.021875 404.864062)scale(0.1 -0.1)">
      <use xlink:href="#DejaVuSans-69"/>
      <use xlink:href="#DejaVuSans-72" x="27.783203"/>
      <use xlink:href="#DejaVuSans-69" x="68.896484"/>
      <use xlink:href="#DejaVuSans-73" x="96.679688"/>
      <use xlink:href="#DejaVuSans-2d" x="148.779297"/>
      <use xlink:href="#DejaVuSans-68" x="184.863281"/>
      <use xlink:href="#DejaVuSans-65" x="248.242188"/>
      <use xlink:href="#DejaVuSans-70" x="309.765625"/>
      <use xlink:href="#DejaVuSans-2f" x="373.242188"/>
      <use xlink:href="#DejaVuSans-66" x="406.933594"/>
      <use xlink:href="#DejaVuSans-75" x="442.138672"/>
      <use xlink:href="#DejaVuSans-6e" x="505.517578"/>
      <use xlink:href="#DejaVuSans-63" x="568.896484"/>
      <use xlink:href="#DejaVuSans-5f" x="623.876953"/>
      <use xlink:href="#DejaVuSans-61" x="673.876953"/>
      <use xlink:href="#DejaVuSans-64" x="735.15625"/>
      <use xlink:href="#DejaVuSans-6c" x="798.632812"/>
      <use xlink:href="#DejaVuSans-5f" x="826.416016"/>
      <use xlink:href="#DejaVuSans-75" x="876.416016"/>
      <use xlink:href="#DejaVuSans-70" x="939.794922"/>
      <use xlink:href="#DejaVuSans-72" x="1003.271484"/>
      <use xlink:href="#DejaVuSans-6f" x="1042.134766"/>
      <use xlink:href="#DejaVuSans-6f" x="1103.316406"/>
      <use xlink:href="#DejaVuSans-74" x="1164.498047"/>
     </g>
    </g>
    <g id="line2d_69">
     <path d="M 885.021875 416.320312 
L 895.021875 416.320312 
L 905.021875 416.320312 
" style="fill: none; stroke: #000000; stroke-width: 3; stroke-linecap: square"/>
    </g>
    <g id="text_43">
     <!-- iris-hep/func_adl_servicex -->
     <g transform="translate(913.021875 419.820312)scale(0.1 -0.1)">
      <use xlink:href="#DejaVuSans-69"/>
      <use xlink:href="#DejaVuSans-72" x="27.783203"/>
      <use xlink:href="#DejaVuSans-69" x="68.896484"/>
      <use xlink:href="#DejaVuSans-73" x="96.679688"/>
      <use xlink:href="#DejaVuSans-2d" x="148.779297"/>
      <use xlink:href="#DejaVuSans-68" x="184.863281"/>
      <use xlink:href="#DejaVuSans-65" x="248.242188"/>
      <use xlink:href="#DejaVuSans-70" x="309.765625"/>
      <use xlink:href="#DejaVuSans-2f" x="373.242188"/>
      <use xlink:href="#DejaVuSans-66" x="406.933594"/>
      <use xlink:href="#DejaVuSans-75" x="442.138672"/>
      <use xlink:href="#DejaVuSans-6e" x="505.517578"/>
      <use xlink:href="#DejaVuSans-63" x="568.896484"/>
      <use xlink:href="#DejaVuSans-5f" x="623.876953"/>
      <use xlink:href="#DejaVuSans-61" x="673.876953"/>
      <use xlink:href="#DejaVuSans-64" x="735.15625"/>
      <use xlink:href="#DejaVuSans-6c" x="798.632812"/>
      <use xlink:href="#DejaVuSans-5f" x="826.416016"/>
      <use xlink:href="#DejaVuSans-73" x="876.416016"/>
      <use xlink:href="#DejaVuSans-65" x="928.515625"/>
      <use xlink:href="#DejaVuSans-72" x="990.039062"/>
      <use xlink:href="#DejaVuSans-76" x="1031.152344"/>
      <use xlink:href="#DejaVuSans-69" x="1090.332031"/>
      <use xlink:href="#DejaVuSans-63" x="1118.115234"/>
      <use xlink:href="#DejaVuSans-65" x="1173.095703"/>
      <use xlink:href="#DejaVuSans-78" x="1232.869141"/>
     </g>
    </g>
   </g>
  </g>
 </g>
 <defs>
  <clipPath id="p0a4d71d540">
   <rect x="54.47" y="10.8" width="774.553455" height="663.64"/>
  </clipPath>
 </defs>
</svg>
